<svg xmlns="http://www.w3.org/2000/svg" width="349.272" height="288.187" viewBox="0 0 349.272 288.187"><defs><style>.a{fill:#fff;}.b{fill:#79c6e0;}.c{fill:#7a7473;}.d{fill:#211715;}.e{fill:#89705d;}.f{fill:#c6c6c6;}.g{fill:#d9d9d9;}.h{fill:#f4b3b3;}.i{fill:#ffda71;}</style></defs><path class="a" d="M2,20.854c.087,46.145.393,150.121.487,193.8a18.744,18.744,0,0,0,18.671,18.709c60.01.231,245.985-.145,307.4-.25a18.734,18.734,0,0,0,18.713-18.747c-.022-44.741-.093-151.21-.118-193.517A18.734,18.734,0,0,0,328.409,2.122c-63.669-.008-246.89-.044-307.661-.054A18.746,18.746,0,0,0,2,20.854Z"/><path class="b" d="M233.609,192.513s-.244-6.585-.45-10.873c6.2,5.637,17.605,5.352,23.629-.465-.228,4.374-.512,11.338-.512,11.338Z"/><path class="a" d="M280.187,191.008c-3.272-5.748-6.487-8.372-9.353-10.146a61.13,61.13,0,0,0-9.172-3.992,30.734,30.734,0,0,0-4.6-1l-.784,15.173"/><path class="a" d="M209.76,191.008c3.272-5.748,6.487-8.372,9.353-10.146a61.13,61.13,0,0,1,9.172-3.992,30.734,30.734,0,0,1,4.6-1l.722,15.173"/><path class="a" d="M279.9,90.831a13.259,13.259,0,0,0-3.784-4.268c-.76-.606-9.056-4.8-16.464-8.216L258.6,76.33a21.271,21.271,0,0,0-4.328-5.848,43.045,43.045,0,0,1-12.421,8.656c-.257.117-.544.259-.626.529a1,1,0,0,0,.143.7,11.313,11.313,0,0,0,.915,1.259c-2.138.037-4.564.086-6.449.119a12.573,12.573,0,0,0,1.01-1.378,1,1,0,0,0,.143-.7c-.082-.27-.369-.412-.626-.529a43.045,43.045,0,0,1-12.421-8.656,22.306,22.306,0,0,0-4.99,7.221c-7.724,3.513-17.062,8.215-17.87,8.86a13.259,13.259,0,0,0-3.784,4.268Z"/><path class="c" d="M260.706,21.948a20.2,20.2,0,0,0-2.259-2.712c-5.57-5.6-13.851-8.137-21.715-7.383-6.888.66-13.662,3.158-18.305,8.288A25.5,25.5,0,0,0,213.045,43.8a5.141,5.141,0,0,1,5.176-.607c5.122-3.065,13.25-6.327,18.847-9.041a1.6,1.6,0,0,1,.963-.234c.815.156.862,1.3.7,2.112,1.77.459,3.513-.7,4.974-1.8l4.819-3.628a65.157,65.157,0,0,0,6.948,8.882,21.91,21.91,0,0,0,3.666,3.114l.613.331.058-.017a5.134,5.134,0,0,1,3.7.371A24.628,24.628,0,0,0,260.706,21.948Z"/><path class="d" d="M251.913,77.111c5.429,2.212,10.723,4.791,15.974,7.39,3.766,1.865,8.18,3.434,10.282,7.34,1.221,2.267,4.675.25,3.454-2.019-2.455-4.561-7.06-6.464-11.448-8.641-5.651-2.8-11.355-5.546-17.2-7.927a2.013,2.013,0,0,0-2.46,1.4,2.049,2.049,0,0,0,1.4,2.46Z"/><path class="d" d="M224.218,73.254c-5.844,2.381-11.548,5.124-17.2,7.927-4.388,2.177-8.993,4.079-11.448,8.641-1.22,2.266,2.232,4.289,3.454,2.019,2.1-3.906,6.516-5.476,10.282-7.34,5.252-2.6,10.546-5.178,15.975-7.39a2.064,2.064,0,0,0,1.4-2.46,2.014,2.014,0,0,0-2.461-1.4Z"/><path class="d" d="M265.645,43.13a27.458,27.458,0,0,0-1.6-19.461A25.262,25.262,0,0,0,250.1,11.628c-11.923-4.521-27.485-1.018-35.058,9.566a27.873,27.873,0,0,0-4.321,21.437c.484,2.526,4.34,1.456,3.857-1.063a23.915,23.915,0,0,1,2.674-16.427,22.162,22.162,0,0,1,12.609-9.861c10.272-3.316,23.469-1.3,29.631,8.446a22.912,22.912,0,0,1,2.3,18.341c-.683,2.486,3.175,3.546,3.857,1.063Z"/><path class="d" d="M260.344,44.841c.178-.048.352-.089.533-.122-.429.077.132.006.194,0,.182,0,.364.007.546.02-.293-.021-.066-.01.1.026a5.451,5.451,0,0,1,.53.142c.137.045.378.153.119.033a5.224,5.224,0,0,1,.485.257c.029.017.5.351.2.107a4.614,4.614,0,0,1,.407.371c.058.059.38.467.159.159a4.313,4.313,0,0,1,.248.392c.05.085.1.173.139.262-.049-.137-.049-.141,0-.01a5.252,5.252,0,0,1,.292,1.088c-.055-.346.013.284.013.294q.012.315,0,.63c0,.065-.071.639-.019.308-.027.175-.065.348-.106.52q-.073.31-.173.613c-.025.076-.157.451-.062.215a6.091,6.091,0,0,1-1.2,1.88,9.786,9.786,0,0,1-1.553,1.4,11.433,11.433,0,0,1-1.1.677c-.187.1-.378.194-.571.285-.348.166.094-.028-.294.118a2.056,2.056,0,0,0-1.4,2.46,2.015,2.015,0,0,0,2.46,1.4c4.294-1.619,8.079-5.458,8.031-10.3a7.385,7.385,0,0,0-2.982-6.02,7.2,7.2,0,0,0-6.046-1.071,2,2,0,1,0,1.063,3.857Z"/><path class="d" d="M218.231,41.061a7.185,7.185,0,0,0-6.071.929,7.431,7.431,0,0,0-3.116,5.955c-.2,4.848,3.543,8.753,7.766,10.5a2.012,2.012,0,0,0,2.46-1.4,2.05,2.05,0,0,0-1.4-2.46c.285.118-.29-.145-.284-.142q-.285-.142-.561-.3a10.773,10.773,0,0,1-.994-.647c-.108-.08-.117-.085-.028-.017-.085-.068-.169-.137-.251-.208-.139-.118-.275-.238-.408-.362-.318-.3-.611-.615-.9-.942a6.219,6.219,0,0,1-.565-.8c-.091-.149-.178-.3-.259-.455q-.075-.138-.141-.282c.046.124.044.122,0-.007a7.131,7.131,0,0,1-.336-1.116s-.1-.633-.064-.306c-.024-.209-.035-.422-.039-.632s.009-.419.016-.629c.011-.342-.017,0,.021-.19a5.311,5.311,0,0,1,.305-1.086c-.129.3.118-.2.151-.255.017-.029.351-.5.11-.2a4.484,4.484,0,0,1,.376-.4c.061-.059.473-.373.16-.153q.188-.132.386-.247c.056-.032.524-.265.335-.184-.221.095.231-.078.276-.091.175-.055.354-.091.532-.136.506-.128-.328-.015.193-.022.183,0,.364,0,.547,0,.42,0-.252-.094.191.018.177.044.353.085.529.139a2,2,0,1,0,1.063-3.857Z"/><path class="d" d="M257.6,56a21.549,21.549,0,0,1-7.321,10.371,18.942,18.942,0,0,1-11.471,3.416A19.57,19.57,0,0,1,227.1,66.3a21.182,21.182,0,0,1-7.257-10.134c-.841-2.416-4.707-1.377-3.857,1.063,2.541,7.3,8.169,13.719,15.848,15.691,7.624,1.958,16.221.767,22.242-4.5a26.147,26.147,0,0,0,7.389-11.352c.826-2.444-3.036-3.493-3.857-1.064Z"/><path class="d" d="M250.876,47.436a3.64,3.64,0,0,1-1.465,2.946,3.419,3.419,0,0,1-2.319.554,3.477,3.477,0,0,1-2.005-6.127,3.534,3.534,0,0,1,4.522-.051A3.28,3.28,0,0,1,250.876,47.436Z"/><path class="d" d="M233.971,47.436a3.643,3.643,0,0,1-1.465,2.946,3.421,3.421,0,0,1-2.32.554,3.477,3.477,0,0,1-2-6.127,3.533,3.533,0,0,1,4.521-.051A3.284,3.284,0,0,1,233.971,47.436Z"/><path class="d" d="M247.517,32.753a70.339,70.339,0,0,0,5.68,7.178,28.328,28.328,0,0,0,2.056,2.131,15.9,15.9,0,0,0,2.879,2.263,2,2,0,1,0,2.019-3.453,6.519,6.519,0,0,1-.559-.356,1.589,1.589,0,0,1-.311-.229c.305.372.1.072-.026-.029-.436-.357-.858-.732-1.272-1.115a27.939,27.939,0,0,1-1.957-2.041q-1.431-1.621-2.787-3.307-.344-.428-.681-.861c.174.223.015.019-.07-.093-.107-.14-.214-.281-.319-.422-.413-.552-.814-1.113-1.2-1.684a2,2,0,1,0-3.454,2.018Z"/><path class="d" d="M247.812,28.654l-4.523,3.406c-1.031.777-2.609,2.316-4.022,2.046l1.4,2.46c.341-2.18-.426-5-3.228-4.608a12.335,12.335,0,0,0-3.214,1.342c-1.085.5-2.174,1-3.264,1.488-4.38,1.973-8.816,3.877-13,6.25-2.239,1.27-.225,4.727,2.019,3.454,2.967-1.683,6.068-3.117,9.172-4.526,1.585-.719,3.174-1.427,4.759-2.144q1.082-.491,2.159-.988.514-.239,1.027-.48c.22-.1.441-.209.661-.315q.651-.258-.011-.1l-.883-.515c-.233-.18.047-.564-.054.08a2.035,2.035,0,0,0,1.4,2.46,7.545,7.545,0,0,0,6-1.625c1.909-1.361,3.757-2.819,5.63-4.23a2.063,2.063,0,0,0,.718-2.736,2.015,2.015,0,0,0-2.737-.718Z"/><path class="a" d="M249.055,89.89c3.988-3.963,6.6-8.764,9.547-13.56a21.271,21.271,0,0,0-4.328-5.848,43.045,43.045,0,0,1-12.421,8.656c-.257.117-.544.259-.626.529a1,1,0,0,0,.143.7,40.1,40.1,0,0,0,2.569,3.318C245.687,85.824,247.881,88.445,249.055,89.89Z"/><path class="a" d="M229.161,89.89c-3.988-3.963-6.6-8.764-9.547-13.56a21.251,21.251,0,0,1,4.328-5.848,43.045,43.045,0,0,0,12.421,8.656c.257.117.544.259.626.529a1,1,0,0,1-.143.7,40.1,40.1,0,0,1-2.569,3.318C232.529,85.824,230.335,88.445,229.161,89.89Z"/><path class="d" d="M250.469,91.3a55.591,55.591,0,0,0,7.819-10.6c.561-.926,1.118-1.855,1.682-2.779a2.826,2.826,0,0,0,.6-1.863,4.965,4.965,0,0,0-.777-1.731,22.783,22.783,0,0,0-4.1-5.265,2.035,2.035,0,0,0-2.829,0,40.3,40.3,0,0,1-6.65,5.391c-1.173.76-2.381,1.466-3.623,2.107-1.22.63-2.876,1.074-3.288,2.569a3.5,3.5,0,0,0,.9,3.032c.814,1.08,1.672,2.127,2.528,3.172,1.633,2,3.293,3.966,4.92,5.965a2.012,2.012,0,0,0,2.828,0,2.046,2.046,0,0,0,0-2.828c-1.358-1.669-2.74-3.317-4.108-4.977-.771-.935-1.54-1.871-2.294-2.819-.214-.268-.408-.509-.608-.782a4.562,4.562,0,0,0-.268-.38c-.187-.2.068-.268.036.149l-.273,1.009q-.544.445-.091.189l.289-.133c.291-.137.582-.275.871-.418q.883-.438,1.746-.919c1.185-.661,2.338-1.38,3.456-2.147a45.316,45.316,0,0,0,6.463-5.352h-2.829a20.221,20.221,0,0,1,4.016,5.443V75.321c-2.806,4.577-5.417,9.319-9.234,13.155C245.823,90.3,248.65,93.133,250.469,91.3Z"/><path class="d" d="M230.575,88.476c-3.817-3.836-6.428-8.578-9.234-13.155v2.018a20.221,20.221,0,0,1,4.016-5.443h-2.829a45.439,45.439,0,0,0,6.463,5.352q1.677,1.152,3.456,2.147.79.441,1.6.847.433.216.871.422.216.1.434.2.453.257-.091-.189l-.273-1.009c-.029-.377.236-.369.036-.149a3.535,3.535,0,0,0-.216.308c-.22.307-.423.557-.66.854-.754.948-1.524,1.884-2.294,2.819-1.368,1.66-2.75,3.308-4.108,4.977a2.057,2.057,0,0,0,0,2.828,2.014,2.014,0,0,0,2.828,0c1.594-1.958,3.22-3.89,4.821-5.843.866-1.057,1.731-2.117,2.559-3.2a3.579,3.579,0,0,0,.963-3.121c-.4-1.453-1.954-1.887-3.142-2.494-1.242-.635-2.452-1.335-3.625-2.089a40.323,40.323,0,0,1-6.794-5.484,2.037,2.037,0,0,0-2.829,0,22.71,22.71,0,0,0-4.02,5.124,7.321,7.321,0,0,0-.823,1.606,2.629,2.629,0,0,0,.561,2.129c.564.924,1.121,1.853,1.682,2.779a55.591,55.591,0,0,0,7.819,10.6C229.565,93.132,232.394,90.3,230.575,88.476Z"/><path class="e" d="M257.4,176.146c4.994-.165,6.783-.841,10.683-3.779,2.615-1.97,4.227-5.275,4.982-8.345a30.969,30.969,0,0,0,.516-9.406,93.467,93.467,0,0,0-5.885-28.132,27.126,27.126,0,0,0-5.143-8.11c-3.255-3.548-6.989-5.458-11.744-6.858a35.768,35.768,0,0,0-6.528-.783c-3.89-.262-7.513,1-11.182,2.238-14.49,4-15.232,22.542-15.594,24.764-.366,2.243-.323,4.527-.592,6.781-.531,4.44-2.255,8.668-3.273,13.031s-.916,9.318,1.346,13.247c1.721,2.988,6.543,5.352,11.055,5.905Z"/><path class="a" d="M261.7,139.168a25.059,25.059,0,0,0-7.582-8.776c-3.3-2.319-7.409-4.926-12.281-3.8-1.277,1.353-14.165,12.373-17.424,14.9-.235.182-.42.321-.546.408l-.216.148-.174-.058a5.136,5.136,0,0,0-5.893,2.206,7.012,7.012,0,0,0,.243,6.8,11.078,11.078,0,0,0,5.869,4.733,24.148,24.148,0,0,0,4.8,8.248,19.753,19.753,0,0,0,7.619,5.35c.011.123.022.209.022.209,0,.476-.294,2.9-.4,3.468-.254,1.369-.165,2.6-2.071,3.286-.064.023-.324.109-.613.205.3,1.142.983,3.712,1.689,6.379,5.874,3.974,14.882,3.734,20.6-.484.7-2.645,1.354-5.111,1.61-6.08-.618-.241-1.271-.5-1.339-.52-1.906-.688-1.831-1.914-2.071-3.285-.248-1.411-.068-1.661-.359-3.1,0,0,0-.06,0-.146a19.463,19.463,0,0,0,7.436-5.447,24.125,24.125,0,0,0,4.748-8.422A29.531,29.531,0,0,0,261.7,139.168Z"/><path class="d" d="M224.008,140.061a7.185,7.185,0,0,0-6.071.929,7.431,7.431,0,0,0-3.116,5.955c-.2,4.848,3.543,8.753,7.766,10.5a2.012,2.012,0,0,0,2.46-1.4,2.051,2.051,0,0,0-1.4-2.46c.285.118-.29-.145-.284-.142-.19-.095-.377-.2-.561-.3a10.64,10.64,0,0,1-.994-.647c-.108-.08-.117-.085-.028-.017-.085-.068-.169-.137-.252-.208-.138-.118-.274-.238-.407-.362-.318-.3-.611-.615-.9-.942a6.026,6.026,0,0,1-.565-.8c-.091-.149-.178-.3-.259-.455-.05-.093-.1-.186-.141-.282.046.124.044.122,0-.007a7.164,7.164,0,0,1-.336-1.116s-.1-.633-.064-.306c-.024-.209-.035-.422-.039-.632s.009-.419.016-.629c.011-.342-.017,0,.021-.19a5.311,5.311,0,0,1,.3-1.086c-.129.3.118-.2.151-.255.017-.029.351-.5.11-.2a4.622,4.622,0,0,1,.375-.4c.062-.06.474-.373.161-.153q.188-.132.386-.247c.056-.032.524-.265.335-.184-.221.095.231-.078.275-.092.176-.054.355-.09.533-.135.506-.128-.329-.015.193-.022.183,0,.364,0,.547,0,.42,0-.252-.094.191.018.177.044.353.085.529.139a2,2,0,1,0,1.063-3.857Z"/><path class="d" d="M263.38,155a21.553,21.553,0,0,1-7.321,10.371,18.942,18.942,0,0,1-11.471,3.416,19.57,19.57,0,0,1-11.716-3.487,21.182,21.182,0,0,1-7.257-10.134c-.841-2.416-4.707-1.377-3.857,1.063,2.541,7.3,8.168,13.719,15.848,15.691,7.623,1.958,16.221.767,22.242-4.5a26.147,26.147,0,0,0,7.389-11.352c.826-2.445-3.036-3.493-3.857-1.064Z"/><path class="d" d="M256.653,146.436a3.64,3.64,0,0,1-1.465,2.946,3.419,3.419,0,0,1-2.319.554,3.478,3.478,0,0,1-2-6.128,3.535,3.535,0,0,1,4.522-.05A3.28,3.28,0,0,1,256.653,146.436Z"/><path class="d" d="M239.748,146.436a3.645,3.645,0,0,1-1.466,2.946,3.418,3.418,0,0,1-2.319.554,3.477,3.477,0,0,1-2-6.128,3.534,3.534,0,0,1,4.521-.05A3.284,3.284,0,0,1,239.748,146.436Z"/><path class="d" d="M233.428,184.4c7.007,4.881,17.459,4.314,24-1.109a2.015,2.015,0,0,0,0-2.829,2.044,2.044,0,0,0-2.828,0c-5.214,4.327-13.7,4.277-19.149.484a2.017,2.017,0,0,0-2.736.717,2.042,2.042,0,0,0,.718,2.737Z"/><path class="d" d="M281.914,190c-2.843-4.932-6.652-9.276-11.831-11.8-4-1.947-8.511-4.013-13.023-4.325a2.029,2.029,0,0,0-2,2l-.784,15.173c-.133,2.573,3.867,2.565,4,0l.784-15.173-2,2a21.489,21.489,0,0,1,4.6,1.095,54.851,54.851,0,0,1,6.408,2.684c4.6,2.242,7.864,5.972,10.4,10.364,1.285,2.23,4.743.218,3.454-2.019Z"/><path class="d" d="M234.134,169.532a18.7,18.7,0,0,1-.2,2c-.024.193-.049.386-.073.58-.044.336.085-.609.021-.165-.009.063-.017.127-.027.19-.046.316-.1.63-.154.946a7.868,7.868,0,0,1-.245,1.1c-.092.3.24-.473.084-.2-.051.089-.1.177-.153.264-.169.275.34-.371.115-.156-.081.078-.169.153-.248.232.409-.411.234-.179.054-.074a3.526,3.526,0,0,0-.33.169q.454-.186.15-.069l-.059.021-.158.053c-.388.13-.777.257-1.164.389a2,2,0,1,0,1.064,3.857,10.526,10.526,0,0,0,2.8-1.15,4.66,4.66,0,0,0,1.913-3.138q.222-1.317.387-2.641a19.635,19.635,0,0,0,.223-2.216,2,2,0,0,0-4,0Z"/><path class="d" d="M251.248,169.936c.026.133.051.265.074.4.009.058.017.117.027.176.039.216-.03-.282-.035-.264a2.353,2.353,0,0,0,.051.59c.028.477.063.948.127,1.423a13.453,13.453,0,0,0,.429,2.42,4.46,4.46,0,0,0,2.142,2.6,18.262,18.262,0,0,0,1.864.764c.538.209,1.078.414,1.612.632a2,2,0,0,0,1.541-.2,2,2,0,0,0,.718-2.736,2.342,2.342,0,0,0-1.2-.919c-.579-.236-1.164-.458-1.747-.685-.23-.089-.46-.18-.691-.267-.166-.063-.275-.174.117.056-.093-.054-.2-.094-.292-.147-.058-.033-.116-.068-.172-.1-.169-.117-.109-.068.177.147-.078-.082-.169-.158-.25-.238-.228-.223.311.474.072.084a1.927,1.927,0,0,0-.143-.275c.065.07.2.532.093.189-.032-.1-.059-.2-.082-.3-.094-.4-.139-.816-.206-1.223-.026-.155-.036-.325-.077-.476.158.587.026.176.01,0-.018-.2-.028-.409-.039-.613a15.125,15.125,0,0,0-.267-2.089,2.013,2.013,0,0,0-2.46-1.4,2.05,2.05,0,0,0-1.4,2.46Z"/><path class="d" d="M237.405,122.075l.018.023-.313-.405a12.9,12.9,0,0,1,1.113,1.992q.723,1.451,1.356,2.943l-.2-.478c.188.448.37.9.53,1.357a2.124,2.124,0,0,0,.919,1.195,2,2,0,0,0,2.938-2.258,39.551,39.551,0,0,0-1.729-4.043,17.113,17.113,0,0,0-1.8-3.155,2,2,0,0,0-1.414-.585,2.036,2.036,0,0,0-1.415.585,2.011,2.011,0,0,0-.585,1.415,2.356,2.356,0,0,0,.585,1.414Z"/><path class="d" d="M240.422,125.172c-1.868,1.956-4.068,3.657-6.114,5.419-2.954,2.544-5.922,5.073-8.928,7.556-.589.488-1.181.974-1.778,1.452-.167.134-.974.714-.317.256-.146.1-.283.216-.429.317a2.053,2.053,0,0,0-.717,2.737,2.016,2.016,0,0,0,2.736.717c2.393-1.667,4.588-3.683,6.813-5.561q4.512-3.808,8.959-7.7c.877-.771,1.8-1.523,2.6-2.368,1.779-1.862-1.045-4.694-2.828-2.829Z"/><path class="d" d="M242.368,128.515c4.105-.856,7.912,1.493,11.078,3.847a24.8,24.8,0,0,1,7.536,9.864,25.254,25.254,0,0,1-1.69,24.52c-1.412,2.161,2.05,4.168,3.454,2.019a28.6,28.6,0,0,0,3.777-22.682,30.54,30.54,0,0,0-12.905-18.447c-3.729-2.437-7.839-3.912-12.313-2.978-2.519.525-1.453,4.382,1.063,3.857Z"/><path class="d" d="M232.572,111.042c-9.424,2.688-14.4,11.415-16.186,20.511-.3,1.506-.509,3.027-.686,4.551-.05.432-.114.867-.146,1.3-.025.335.056-.375.039-.278-.049.273-.082.549-.12.823-.155,1.135-.24,2.272-.31,3.414a51.631,51.631,0,0,1-2.352,11.618c-1.07,3.63-2,7.326-1.738,11.145.252,3.671,1.385,7.644,4.259,10.13a20.3,20.3,0,0,0,10.714,4.442,2.01,2.01,0,0,0,2-2,2.052,2.052,0,0,0-2-2,15.433,15.433,0,0,1-8.016-3.382c-2.151-1.929-2.887-5.022-2.989-7.813-.126-3.426.8-6.652,1.759-9.905a50.651,50.651,0,0,0,2.289-11.021c.132-1.957.323-3.893.54-5.84q.077-.69.161-1.379c.012-.1.083-.6.009-.073.023-.162.045-.325.07-.486.062-.411.126-.822.2-1.231a33.063,33.063,0,0,1,3.215-9.963,17.041,17.041,0,0,1,10.353-8.707c2.471-.7,1.421-4.565-1.063-3.857Z"/><path class="d" d="M233.635,114.9c3.3-1.114,6.657-2.312,10.185-2.19a27.807,27.807,0,0,1,8.2,1.287,22.639,22.639,0,0,1,13.072,11.535,50.384,50.384,0,0,1,3.281,9.3,92.463,92.463,0,0,1,2.2,10.335c.512,3.286.851,6.6,1.043,9.924a25.859,25.859,0,0,1-1,10.189,13.107,13.107,0,0,1-5.661,6.868,14.047,14.047,0,0,1-7.544,2c-2.566.1-2.578,4.1,0,4a18.934,18.934,0,0,0,8.211-1.757,17.943,17.943,0,0,0,7.092-6.275c3.978-6.437,3.169-14.452,2.321-21.62a88.6,88.6,0,0,0-5.4-22.541,26.605,26.605,0,0,0-13.718-14.706,27.785,27.785,0,0,0-5.368-1.855,38.908,38.908,0,0,0-5.428-.6c-4.405-.285-8.412.858-12.544,2.255-2.426.821-1.385,4.686,1.063,3.857Z"/><path class="d" d="M211.487,192.017c2.532-4.392,5.793-8.122,10.4-10.364A56.458,56.458,0,0,1,228.19,179a21.462,21.462,0,0,1,4.7-1.13l-2-2,.722,15.173c.122,2.563,4.123,2.577,4,0l-.722-15.173a2.022,2.022,0,0,0-2-2c-4.512.312-9.026,2.378-13.023,4.325-5.179,2.523-8.988,6.868-11.831,11.8-1.288,2.234,2.167,4.251,3.454,2.019Z"/><path class="f" d="M91.83,129a40.62,40.62,0,0,1,9.454-2.358c5.947-.541,10.246-.209,15.165,2.355,5.32,3.25,7.321,10.2,7.31,12.7l1.025.267a5.135,5.135,0,0,1,3.7.373c2.806-9.184.644-18.6-5.069-24.445A23.163,23.163,0,0,0,119,114.8c-3.556-4.631-11.213-6-17.259-5.413-6.888.671-13.989,3.072-18.632,8.289-5.311,5.968-7.441,16.316-5.095,25.189a4.994,4.994,0,0,1,6.034-.084c-.029-2.7,1.43-11.8,7.782-13.781"/><path class="d" d="M69.577,187.312c6.123-2.915,12.319-5.675,18.47-8.53a2.017,2.017,0,0,0,.718-2.736,2.046,2.046,0,0,0-2.736-.718c-6.151,2.855-12.347,5.615-18.47,8.53a2.017,2.017,0,0,0-.718,2.736,2.043,2.043,0,0,0,2.736.718Z"/><path class="a" d="M95.266,185.367c-3.5-2.945-5.8-6.511-8.385-10.074a16.271,16.271,0,0,1,3.8-4.344,38.562,38.562,0,0,0,10.909,6.43c.226.087.478.193.551.393a.65.65,0,0,1-.126.521,30.94,30.94,0,0,1-2.257,2.464C98.225,182.346,96.3,184.293,95.266,185.367Z"/><path class="d" d="M97.125,183.952c-3.245-2.758-5.594-6.249-8.073-9.668V176.3a15.129,15.129,0,0,1,3.489-3.94H89.713a39.542,39.542,0,0,0,5.718,4.051q1.449.843,2.964,1.562.713.337,1.438.647.477.2.956.4.238.1.478.191.725.324-.407-.433l-.273-1.01q.289-.717.131-.463-.114.175.182-.231c.01.049-.193.226-.224.262-.245.279-.5.55-.755.821-.664.706-1.34,1.4-2.016,2.094-1.2,1.233-2.414,2.456-3.608,3.7-1.786,1.856,1.039,4.688,2.828,2.829,1.431-1.487,2.887-2.949,4.322-4.431,1.317-1.361,4.105-3.49,2.825-5.654-.63-1.065-1.964-1.318-3.019-1.788s-2.09-.988-3.1-1.548a34.449,34.449,0,0,1-5.612-3.825,2.077,2.077,0,0,0-2.828,0,18.382,18.382,0,0,0-4.115,4.749,1.959,1.959,0,0,0,0,2.019c2.669,3.681,5.2,7.509,8.7,10.478a2.053,2.053,0,0,0,2.828,0A2.017,2.017,0,0,0,97.125,183.952Z"/><path class="a" d="M112.517,185.367c3.5-2.945,5.8-6.511,8.386-10.074a16.271,16.271,0,0,0-3.8-4.344,38.562,38.562,0,0,1-10.909,6.43c-.226.087-.478.193-.551.393a.65.65,0,0,0,.126.521,30.94,30.94,0,0,0,2.257,2.464C109.559,182.346,111.487,184.293,112.517,185.367Z"/><path class="d" d="M113.376,186.781c3.494-2.969,6.03-6.8,8.7-10.478a1.959,1.959,0,0,0,0-2.019,18.382,18.382,0,0,0-4.115-4.749,2.075,2.075,0,0,0-2.828,0,34.27,34.27,0,0,1-5.5,3.759q-1.513.847-3.1,1.561c-1.079.485-2.5.755-3.139,1.841-1.264,2.137,1.434,4.216,2.739,5.565,1.463,1.512,2.949,3,4.408,4.52,1.788,1.858,4.614-.972,2.828-2.829-1.194-1.241-2.407-2.464-3.609-3.7-.676-.694-1.351-1.388-2.015-2.094-.236-.251-.473-.5-.7-.761a1.7,1.7,0,0,1-.278-.322c.136.4.374.032.314.694l-.274,1.01q-1.131.756-.406.433c.12-.046.239-.094.358-.142.28-.114.559-.231.837-.349.564-.239,1.124-.485,1.677-.748q1.514-.718,2.964-1.562a39.542,39.542,0,0,0,5.718-4.051h-2.828a15.145,15.145,0,0,1,3.489,3.94v-2.019c-2.479,3.419-4.828,6.91-8.073,9.668a2.017,2.017,0,0,0,0,2.829A2.042,2.042,0,0,0,113.376,186.781Z"/><path class="d" d="M86.094,141.7c.021-.236.048-.472.074-.707.046-.41-.082.51-.011.091.023-.135.041-.27.063-.405q.142-.853.349-1.694.217-.89.51-1.758c.094-.278.193-.554.3-.828.037-.1.306-.707.081-.21.062-.137.122-.275.185-.411a14.854,14.854,0,0,1,.941-1.72c.081-.127.165-.253.25-.378.057-.082.464-.615.135-.2.188-.235.382-.465.588-.686a9.663,9.663,0,0,1,.757-.73c.065-.055.468-.353.065-.065.123-.088.244-.178.369-.262a8.108,8.108,0,0,1,.924-.537c.076-.038.548-.222.09-.053.2-.073.4-.147.6-.212a2,2,0,0,0-1.063-3.858c-6.087,1.969-8.687,8.762-9.2,14.626a2.007,2.007,0,0,0,2,2,2.053,2.053,0,0,0,2-2Z"/><path class="d" d="M115.44,130.726c.329.2.649.419.959.651l-.056-.042.2.167c.157.132.31.266.46.405a16.437,16.437,0,0,1,1.417,1.51c.3.357-.144-.211.106.132.1.136.2.272.3.41q.311.444.593.907a19.057,19.057,0,0,1,.957,1.774c.067.14.132.282.195.424.034.076.219.562.038.082.1.276.217.547.316.825q.3.826.516,1.678c.114.447.191.9.281,1.35.076.379-.047-.485-.017-.137.008.091.021.183.029.274.016.188.025.375.025.563a2,2,0,0,0,4,0,19.206,19.206,0,0,0-8.3-14.427,2.02,2.02,0,0,0-2.737.717,2.042,2.042,0,0,0,.718,2.737Z"/><path class="d" d="M100.621,126.64a5.557,5.557,0,0,1,.323-1.054l-.2.478a6.371,6.371,0,0,1,.8-1.357l-.312.4a7.02,7.02,0,0,1,1.248-1.242l-.405.313a7.363,7.363,0,0,1,.9-.585,2,2,0,0,0-2.019-3.454,8.843,8.843,0,0,0-2.708,2.342,7.545,7.545,0,0,0-1.477,3.092,2.136,2.136,0,0,0,.2,1.541,2,2,0,0,0,2.737.717,1.985,1.985,0,0,0,.919-1.195Z"/><path class="d" d="M106.815,128.738q.195-.183.4-.359l.165-.138c.06-.05.324-.255.051-.045s.014-.009.057-.04.117-.085.176-.127q.224-.157.453-.3a12.906,12.906,0,0,1,1.852-.972l-.478.2a13.127,13.127,0,0,1,3.1-.872,2,2,0,0,0,1.195-.919,2.039,2.039,0,0,0,.2-1.541,2.017,2.017,0,0,0-.919-1.2,2.321,2.321,0,0,0-1.541-.2,14.311,14.311,0,0,0-7.543,3.683,2.018,2.018,0,0,0,0,2.829,2.044,2.044,0,0,0,2.829,0Z"/><path class="d" d="M130.616,142.183a28.1,28.1,0,0,0-1.946-20.444,19.34,19.34,0,0,0-6.706-7.465A8.665,8.665,0,0,1,120,112.887a12.955,12.955,0,0,0-1.551-1.448,16.289,16.289,0,0,0-3.791-2.234c-5.937-2.534-12.731-2.334-18.9-.831-6.589,1.6-12.754,5.166-16.4,11.02-4.072,6.541-5.084,14.8-3.668,22.282.478,2.526,4.334,1.456,3.857-1.064a27.8,27.8,0,0,1,2.268-17.427c2.657-5.243,7.358-8.634,12.9-10.37,5.246-1.642,11.064-2.2,16.4-.652a13.473,13.473,0,0,1,6.267,3.8c1.043,1.1,2.568,1.637,3.76,2.571a13.948,13.948,0,0,1,2.8,3.121c3.9,5.7,4.59,12.9,2.815,19.466-.672,2.488,3.186,3.55,3.857,1.063Z"/><path class="d" d="M125.315,143.894c.178-.048.353-.089.534-.122-.43.077.131.006.193,0,.183,0,.364.007.547.02-.294-.021-.066-.01.1.026a5.376,5.376,0,0,1,.53.142c.137.045.378.153.119.033a5.241,5.241,0,0,1,.486.257c.028.017.5.351.2.107a4.748,4.748,0,0,1,.406.371c.058.059.38.467.159.159a4.553,4.553,0,0,1,.249.392c.049.085.1.173.139.262-.049-.137-.05-.141,0-.01a5.19,5.19,0,0,1,.292,1.088c-.055-.346.013.284.013.294.009.21.007.42,0,.63,0,.065-.07.639-.019.308-.027.175-.065.348-.106.52-.049.207-.106.411-.173.613-.025.076-.156.451-.062.215a6.072,6.072,0,0,1-1.205,1.88,9.826,9.826,0,0,1-1.552,1.4,11.448,11.448,0,0,1-1.1.677c-.187.1-.378.194-.57.285-.349.166.093-.028-.295.118a2.056,2.056,0,0,0-1.4,2.46,2.016,2.016,0,0,0,2.461,1.4c4.294-1.619,8.078-5.458,8.03-10.3a7.382,7.382,0,0,0-2.982-6.02,7.2,7.2,0,0,0-6.046-1.071,2,2,0,1,0,1.063,3.857Z"/><path class="d" d="M83.2,140.114a7.185,7.185,0,0,0-6.071.929A7.427,7.427,0,0,0,74.016,147c-.2,4.848,3.542,8.753,7.765,10.5a2.012,2.012,0,0,0,2.46-1.4,2.05,2.05,0,0,0-1.4-2.46c.285.118-.29-.145-.284-.142q-.285-.142-.561-.3a10.773,10.773,0,0,1-.994-.647c-.107-.08-.117-.085-.027-.017-.086-.068-.17-.137-.252-.208-.139-.118-.275-.238-.408-.362-.318-.3-.611-.615-.9-.942a6.219,6.219,0,0,1-.565-.8c-.091-.149-.178-.3-.259-.455q-.074-.138-.141-.282c.046.124.045.122,0-.007a7.131,7.131,0,0,1-.336-1.116s-.1-.633-.064-.306c-.023-.209-.035-.422-.039-.632s.009-.419.016-.629c.011-.342-.016,0,.021-.19a5.311,5.311,0,0,1,.3-1.086c-.129.3.119-.2.151-.255.017-.029.351-.5.111-.2a4.473,4.473,0,0,1,.375-.4c.061-.059.474-.373.16-.153q.188-.132.386-.247c.056-.032.524-.265.335-.184-.221.095.231-.078.276-.092.176-.054.354-.09.532-.135.506-.128-.328-.015.193-.022.183,0,.364,0,.547,0,.42,0-.251-.094.191.018.177.044.354.085.529.139a2,2,0,1,0,1.063-3.857Z"/><path class="d" d="M122.574,155.051a21.549,21.549,0,0,1-7.321,10.371,18.941,18.941,0,0,1-11.47,3.416,19.571,19.571,0,0,1-11.717-3.487,21.182,21.182,0,0,1-7.257-10.134c-.841-2.416-4.706-1.377-3.857,1.063,2.541,7.3,8.169,13.719,15.848,15.691,7.624,1.958,16.221.767,22.242-4.5a26.138,26.138,0,0,0,7.389-11.352c.827-2.444-3.035-3.493-3.857-1.064Z"/><path class="d" d="M115.848,146.489a3.645,3.645,0,0,1-1.466,2.946,3.418,3.418,0,0,1-2.319.554,3.477,3.477,0,0,1-2-6.127,3.533,3.533,0,0,1,4.521-.051A3.284,3.284,0,0,1,115.848,146.489Z"/><path class="d" d="M98.942,146.489a3.64,3.64,0,0,1-1.465,2.946,3.421,3.421,0,0,1-2.32.554,3.477,3.477,0,0,1-2-6.127,3.533,3.533,0,0,1,4.521-.051A3.281,3.281,0,0,1,98.942,146.489Z"/><path class="d" d="M148.056,190.125a12.955,12.955,0,0,0-5.105-5.312c-1.712-.847-3.493-1.569-5.246-2.325-5.3-2.287-10.636-4.516-15.878-6.941a2.059,2.059,0,0,0-2.737.718,2.016,2.016,0,0,0,.718,2.736c5.062,2.342,10.208,4.5,15.331,6.7,1.817.783,3.646,1.548,5.436,2.391a9.316,9.316,0,0,1,4.027,4.047c1.228,2.263,4.683.246,3.454-2.019Z"/><path class="a" d="M3.945,31.171a.186.186,0,0,1-.363,0"/><path class="a" d="M133.567,286.109l-13.739,0c-2.925,0-3.191-7.759-2.3-9.684s2.649-3.16,5.7-3.74c10.555-2.008,13.169-7.708,14.045-17.806.376-4.329.765-7.015.978-11.328.138-2.789.379-5.9.8-10.143,23.368-.023,47.661-.054,71.07-.089.421,4.285.665,7.423.8,10.232.213,4.313.6,7,.977,11.328.876,10.1,3.49,15.8,14.045,17.806,3.047.58,4.807,1.816,5.7,3.74s1.023,9.706-1.971,9.706Z"/><path class="g" d="M12.811,231.372a18.664,18.664,0,0,0,8.347,1.993c60.01.231,245.985-.145,307.4-.25a18.734,18.734,0,0,0,18.713-18.747c0-4.783,0-10.272-.012-16.314h-.382c-5.233.3-317.955.595-344.343.595H2.452c.012,5.934.025,11.318.035,16.007A18.747,18.747,0,0,0,12.811,231.372Z"/><path class="a" d="M142.532,286.111l-22.7,0c-2.925,0-3.191-7.759-2.3-9.684s2.649-3.16,5.7-3.74a20.762,20.762,0,0,0,6.992-2.482c23.752,0,65.719,0,88.736,0a20.628,20.628,0,0,0,6.987,2.485c3.047.58,4.807,1.816,5.7,3.74s1.023,9.706-1.971,9.706Z"/><path class="d" d="M208.234,234.592c.624,6.6,1.023,13.21,1.617,19.81.421,4.668,1.006,9.718,3.852,13.62a14.685,14.685,0,0,0,4.942,4.31,31.6,31.6,0,0,0,7.561,2.454,5.914,5.914,0,0,1,2.887,1.423,4.066,4.066,0,0,1,.814,1.224c-.23-.526-.028-.033-.007.076.047.245.116.485.159.731a12.872,12.872,0,0,1-.252,5.159,2.849,2.849,0,0,1-.346.771c.188-.347-.134.112-.15.14l.135-.12c.235-.081.242-.09.023-.025,0-.042.321-.039.028-.036-.084,0-.169,0-.253,0-.521-.02-1.047,0-1.568,0h-5.56l-18.513,0-49.7-.011q-16.729,0-33.461-.006a4.073,4.073,0,0,0-.615,0c.183-.029.15.136.21.054l.128.113a2.361,2.361,0,0,1-.254-.256c.094.148-.237-.493-.276-.6a9.7,9.7,0,0,1-.526-2.756c-.032-.515-.042-1.033-.026-1.549q.01-.3.031-.6c.006-.082.092-.769.039-.444.029-.181.321-1.161.1-.636a3.951,3.951,0,0,1,.814-1.224,6.381,6.381,0,0,1,3.279-1.514,26.747,26.747,0,0,0,7.41-2.494,15.889,15.889,0,0,0,7.431-10.305,50.421,50.421,0,0,0,1.164-7.956c.3-3.306.69-6.6.869-9.918q.256-4.724.706-9.43a2.014,2.014,0,0,0-2-2,2.043,2.043,0,0,0-2,2c-.638,6.754-1.046,13.527-1.659,20.285-.378,4.168-1.032,8.959-4.067,12.026a13.03,13.03,0,0,1-5.514,3.119c-2.781.858-5.7,1.008-8.017,2.969-3.358,2.842-3.22,8.671-1.524,12.4a4.286,4.286,0,0,0,3.994,2.718c.6.013,1.2,0,1.8,0h6.1l19.726,0,50.938.011,20.429,0c3.458,0,6.945.133,10.4,0,4.535-.172,4.913-6.138,4.573-9.552a7.855,7.855,0,0,0-2.849-5.768c-2.36-1.87-5.324-1.988-8.087-2.883a11.72,11.72,0,0,1-8.039-8.023,36.223,36.223,0,0,1-1.28-7.5c-.3-3.307-.692-6.6-.885-9.92s-.421-6.6-.732-9.89a2.055,2.055,0,0,0-2-2,2.014,2.014,0,0,0-2,2Z"/><path class="d" d="M143.14,272.2h62.988c2.574,0,2.578-4,0-4H143.14c-2.574,0-2.578,4,0,4Z"/><path class="d" d="M0,20.854q.051,27.3.127,54.609Q.213,108.717.3,141.971q.078,29.52.152,59.041.015,5.634.027,11.268c.011,5.029.667,9.768,3.6,14.011a20.917,20.917,0,0,0,12.552,8.56c3.4.751,6.978.523,10.444.533q21.579.063,43.156.054,28.076.006,56.151-.021,30.949-.025,61.9-.069,30.2-.042,60.4-.093,25.909-.043,51.817-.09l20.184-.037c3.009,0,6.066.14,9.069-.055a20.892,20.892,0,0,0,13.917-6.53,21.167,21.167,0,0,0,5.594-14.466c.012-3.619,0-7.239-.006-10.859q-.006-13.243-.015-26.488-.018-32.08-.039-64.162-.021-31.053-.04-62.107l-.015-24.392c0-4.274.209-8.557-1.377-12.62A20.866,20.866,0,0,0,337.543,2.241c-4.059-1.954-8.2-2.119-12.6-2.119L315.5.12l-22.141,0L239.021.108,177.192.1l-62-.011L60.336.075,37.8.071H28.128c-3.073,0-6.24-.208-9.3.1A20.989,20.989,0,0,0,0,20.854c-.028,2.575,3.972,2.577,4,0A16.985,16.985,0,0,1,10.527,7.528C14.2,4.7,18.358,4.068,22.856,4.069l18.591,0,48.932.009,58.69.01,61.9.012,57.707.01,46.96.007,9.172,0c4.19,0,8.156.047,11.915,2.207A16.91,16.91,0,0,1,344.966,18.3c.556,3.521.187,7.346.189,10.906q.017,27.231.034,54.462.021,32.289.041,64.577.016,28,.033,56.006c0,3.683.162,7.406-.019,11.084a16.767,16.767,0,0,1-6.859,12.588c-6.022,4.345-14.037,3.2-21.069,3.214q-22.6.041-45.192.081-28.226.049-56.45.093-30.5.047-60.992.082-29.44.032-58.881.046-24.807.009-49.615-.015-9.552-.011-19.1-.037c-3.237-.009-6.674.285-9.833-.5a16.951,16.951,0,0,1-11.184-9.147c-1.9-3.971-1.581-8.308-1.59-12.583l-.027-11.421Q4.413,183.867,4.377,170q-.084-32.322-.172-64.646Q4.124,74.675,4.05,44,4.023,32.427,4,20.854C4,18.281,0,18.276,0,20.854Z"/><path class="d" d="M182.1,216.169c0,4.065-3.043,7.052-7.383,7.052-4.978,0-7.545-3.4-7.545-7.055a7.155,7.155,0,0,1,7.254-7.256A7.55,7.55,0,0,1,182.1,216.169Z"/><path class="d" d="M94.611,72.056a18.7,18.7,0,0,1-.2,2q-.036.291-.074.58c-.043.336.086-.609.022-.165-.009.063-.017.127-.027.19-.047.316-.1.631-.154.946a7.882,7.882,0,0,1-.245,1.106c-.092.3.24-.474.084-.2-.051.089-.1.176-.154.264-.168.275.341-.372.116-.157-.081.078-.169.153-.248.232.409-.41.234-.178.054-.074a3.533,3.533,0,0,0-.33.17q.454-.186.15-.069l-.06.02c-.052.019-.105.036-.158.053-.387.13-.776.258-1.163.389A2,2,0,1,0,93.291,81.2a10.517,10.517,0,0,0,2.8-1.149A4.662,4.662,0,0,0,98,76.913q.222-1.317.387-2.641a19.845,19.845,0,0,0,.223-2.216,2,2,0,0,0-4,0Z"/><path class="d" d="M111.725,72.461c.026.132.051.264.074.4.009.059.017.117.027.176.039.216-.03-.282-.035-.264a2.345,2.345,0,0,0,.051.59c.028.477.063.949.127,1.423A13.478,13.478,0,0,0,112.4,77.2a4.471,4.471,0,0,0,2.143,2.6,18.031,18.031,0,0,0,1.864.763c.538.21,1.078.414,1.612.632a2,2,0,0,0,1.541-.2,2,2,0,0,0,.718-2.737,2.347,2.347,0,0,0-1.2-.919c-.579-.236-1.164-.458-1.747-.684-.23-.09-.46-.18-.691-.268-.166-.063-.275-.173.117.057-.093-.055-.2-.094-.292-.148-.058-.033-.116-.068-.172-.1q-.253-.175.177.146c-.078-.082-.169-.158-.25-.237-.229-.223.311.473.072.083a1.915,1.915,0,0,0-.143-.274c.065.069.2.531.092.189-.031-.1-.058-.2-.082-.3-.093-.4-.138-.815-.2-1.223-.026-.155-.036-.325-.077-.476.158.588.026.177.01,0-.018-.2-.028-.409-.039-.614a15.3,15.3,0,0,0-.267-2.089,2.014,2.014,0,0,0-2.461-1.4,2.051,2.051,0,0,0-1.4,2.461Z"/><path class="h" d="M71.11,93.532c3.272-5.748,6.487-8.372,9.354-10.145a61.082,61.082,0,0,1,9.171-3.993l.981-.294a4.446,4.446,0,0,1,3.86.638l1.062.756c6.1,4.344,15.808,3.986,21.572-.8h0a4.45,4.45,0,0,1,4.12-.837l1.783.534a61.126,61.126,0,0,1,9.171,3.993c2.867,1.773,6.081,4.4,9.353,10.145Z"/><path class="e" d="M79.158,36.642a26.448,26.448,0,0,0,.87,8.44,5.192,5.192,0,0,1,4.653-.818l2.53.828.478-.327A121.5,121.5,0,0,0,102.3,33.045c-.318,2.242-1.448,6.055-.024,5.663,5.946-1.564,11.645-4.72,15.088-9.643a50.976,50.976,0,0,0,2.8,8.55,27.282,27.282,0,0,0,5.36,7.191,4.89,4.89,0,0,1,4.966-.247c2.81-9.035.649-18.3-5.066-24.048-5.57-5.6-13.851-8.137-21.715-7.383-6.888.66-13.662,3.157-18.3,8.288A24.923,24.923,0,0,0,79.158,36.642Z"/><path class="e" d="M78.167,56.539a10.051,10.051,0,0,1,.427-1.417s.237-.619.6-1.587A11.108,11.108,0,0,0,84.9,58a24.132,24.132,0,0,0,4.8,8.248,21.244,21.244,0,0,0,1.849,1.84c3.541,7.975-14.086,7.665-13.176,5.343,1.74-.986,2.136-3.39,1.665-5.333s-1.348-3.866-1.754-5.823A13.465,13.465,0,0,1,78.167,56.539Z"/><path class="d" d="M76.665,54.591c-1.368,3.7-.636,7.663.6,11.291a26.854,26.854,0,0,1,.871,2.865,4.48,4.48,0,0,1,0,1.727,2.526,2.526,0,0,1-.57,1.1c-.525.448-.942.656-1.139,1.374a2.4,2.4,0,0,0-.015,1.217c.48,1.993,2.892,2.4,4.6,2.591a19.2,19.2,0,0,0,6.8-.489c2.56-.652,5.009-2.006,5.961-4.6a2.017,2.017,0,0,0-1.4-2.46,2.042,2.042,0,0,0-2.46,1.4c-.14.381.221-.27-.017.019-.032.038-.339.513-.144.252s-.113.12-.161.166c-.1.1-.209.195-.314.291s-.072.065.117-.085c-.08.059-.163.116-.246.171-.132.079-.26.164-.394.239s-.28.148-.421.22c-.092.047-.544.229-.12.061a12.7,12.7,0,0,1-1.983.592c-.349.076-.7.137-1.055.192-.483.075.265-.024-.179.021-.207.021-.413.042-.621.058a19.287,19.287,0,0,1-2.137.046c-.314-.012-.625-.037-.938-.061-.129-.01-.6-.079-.046,0-.135-.02-.269-.04-.4-.064-.241-.044-.482-.094-.718-.161a2.391,2.391,0,0,0-.308-.1c-.358-.046.414.2.126.059a1.1,1.1,0,0,1-.216-.118c-.247-.207.39.343.186.142a1.655,1.655,0,0,1,.374,1.406l-.92,1.195c3.405-2.1,3.114-6.21,2.013-9.532s-2.117-6.6-.87-9.971a2.018,2.018,0,0,0-1.4-2.46,2.043,2.043,0,0,0-2.461,1.4Z"/><path class="d" d="M115.521,29.957a50.191,50.191,0,0,0,2.7,8.2,27.153,27.153,0,0,0,4.807,7,2,2,0,0,0,2.828-2.828,24.237,24.237,0,0,1-4.181-6.194c-.017-.037-.154-.354-.065-.144.1.242-.107-.272-.1-.261-.109-.278-.213-.558-.314-.839-.225-.625-.435-1.257-.636-1.89q-.647-2.04-1.177-4.113a2,2,0,1,0-3.857,1.063Z"/><path class="d" d="M115.7,27.978a20.355,20.355,0,0,1-6.237,5.619,27.174,27.174,0,0,1-3.765,1.885c-.673.272-1.359.516-2.049.741q-.564.183-1.135.347l-.381.107q-.894.2.275.072l.882.514c.05.043.411.629.3.719a5.511,5.511,0,0,0,0-.58,8.89,8.89,0,0,1,.141-1.063c.162-.922.362-1.837.5-2.763.284-1.875-1.793-3.45-3.343-1.945a108.679,108.679,0,0,1-14.21,11.408c-2.108,1.448-.11,4.916,2.019,3.453a114.809,114.809,0,0,0,15.02-12.033l-3.343-1.946c-.3,1.983-1.224,4.365-.655,6.362.856,3,4.339,1.476,6.3.749A27.358,27.358,0,0,0,119.148,30c1.49-2.106-1.977-4.107-3.453-2.019Z"/><path class="d" d="M132.627,44.405a27.463,27.463,0,0,0-1.6-19.461A25.258,25.258,0,0,0,117.079,12.9c-11.923-4.521-27.485-1.018-35.058,9.566A27.877,27.877,0,0,0,77.7,43.906c.484,2.525,4.34,1.456,3.857-1.064a23.919,23.919,0,0,1,2.675-16.426,22.166,22.166,0,0,1,12.608-9.862c10.272-3.316,23.47-1.295,29.632,8.447a22.919,22.919,0,0,1,2.3,18.341c-.683,2.485,3.175,3.546,3.857,1.063Z"/><path class="d" d="M127.326,46.116c.177-.048.352-.09.533-.122-.429.077.131.006.193.005.183,0,.365.006.547.02-.293-.022-.066-.011.1.025a5.307,5.307,0,0,1,.53.143c.137.045.379.153.12.033a5,5,0,0,1,.485.257c.029.017.5.351.195.107a4.454,4.454,0,0,1,.406.37c.059.06.381.468.16.159a4.456,4.456,0,0,1,.248.392c.05.086.1.173.139.263-.049-.138-.049-.141,0-.01a5.24,5.24,0,0,1,.291,1.087c-.054-.346.013.285.014.3.008.21.006.42,0,.629,0,.066-.07.64-.019.309-.027.174-.064.348-.105.52q-.073.309-.173.613c-.025.076-.157.451-.062.214a6.062,6.062,0,0,1-1.206,1.88,9.745,9.745,0,0,1-1.552,1.405,11.433,11.433,0,0,1-1.1.677c-.188.1-.379.194-.571.285-.348.166.094-.028-.294.118a2.056,2.056,0,0,0-1.4,2.46,2.015,2.015,0,0,0,2.46,1.4c4.294-1.62,8.078-5.458,8.031-10.3a7.387,7.387,0,0,0-2.982-6.019,7.191,7.191,0,0,0-6.046-1.071,2,2,0,0,0,1.063,3.857Z"/><path class="d" d="M85.213,42.335a7.189,7.189,0,0,0-6.071.93,7.425,7.425,0,0,0-3.116,5.955c-.2,4.848,3.543,8.753,7.765,10.5a2.013,2.013,0,0,0,2.461-1.4,2.052,2.052,0,0,0-1.4-2.46c.285.118-.29-.145-.284-.142-.19-.095-.377-.2-.561-.3a10.846,10.846,0,0,1-.994-.647c-.108-.08-.117-.086-.028-.017-.085-.068-.169-.137-.252-.209q-.207-.175-.407-.361c-.319-.3-.611-.616-.9-.942a6.2,6.2,0,0,1-.564-.8c-.091-.149-.178-.3-.259-.455q-.075-.139-.141-.282c.046.124.044.121,0-.008a7,7,0,0,1-.336-1.116s-.1-.633-.064-.3c-.024-.209-.035-.422-.04-.632s.01-.419.017-.629c.011-.342-.017,0,.02-.19a5.314,5.314,0,0,1,.306-1.086c-.13.3.118-.2.15-.256.017-.028.351-.5.111-.2a4.22,4.22,0,0,1,.375-.4c.062-.06.474-.373.161-.153q.188-.132.385-.247c.057-.033.525-.265.335-.184-.22.1.231-.078.276-.092.176-.054.355-.09.532-.135.507-.129-.328-.015.194-.023.182,0,.364,0,.547,0,.419,0-.252-.094.191.017.177.045.353.086.529.139a2,2,0,1,0,1.063-3.857Z"/><path class="d" d="M124.585,57.273a21.562,21.562,0,0,1-7.322,10.371,18.945,18.945,0,0,1-11.47,3.416,19.582,19.582,0,0,1-11.717-3.487,21.192,21.192,0,0,1-7.257-10.135c-.84-2.416-4.706-1.377-3.857,1.064C85.5,65.8,91.131,72.221,98.81,74.193c7.624,1.958,16.222.767,22.243-4.5a26.159,26.159,0,0,0,7.389-11.353c.826-2.444-3.036-3.493-3.857-1.063Z"/><path class="d" d="M117.858,48.711a3.64,3.64,0,0,1-1.465,2.946,3.42,3.42,0,0,1-2.32.554,3.477,3.477,0,0,1-2-6.128,3.535,3.535,0,0,1,4.521-.051A3.283,3.283,0,0,1,117.858,48.711Z"/><path class="d" d="M100.952,48.711a3.64,3.64,0,0,1-1.465,2.946,3.419,3.419,0,0,1-2.319.554,3.478,3.478,0,0,1-2.005-6.128,3.536,3.536,0,0,1,4.522-.051A3.281,3.281,0,0,1,100.952,48.711Z"/><path class="d" d="M74.834,91.389a22.969,22.969,0,0,1,6.385-6.116,38.469,38.469,0,0,1,6.143-2.918c1.429-.575,3.948-1.917,5.5-1.253a12.739,12.739,0,0,1,1.946,1.316,17.973,17.973,0,0,0,4.227,2.049,21.215,21.215,0,0,0,16.787-1.478c1.165-.65,2.242-1.754,3.2-2.143a4.075,4.075,0,0,1,2.784.276,47.211,47.211,0,0,1,5.4,2.041,26.784,26.784,0,0,1,6.228,3.525,27.558,27.558,0,0,1,6.374,7.853c1.286,2.23,4.744.218,3.454-2.019-2.889-5.009-6.753-9.357-12.022-11.891a62.439,62.439,0,0,0-7.254-3.022c-2.286-.764-4.553-1.378-6.871-.273-1.237.59-2.25,1.623-3.464,2.282a15.763,15.763,0,0,1-3.99,1.476,17.5,17.5,0,0,1-8.716-.22,14.355,14.355,0,0,1-3.971-1.815A15.414,15.414,0,0,0,94.3,77.4c-2.4-.963-4.762-.156-7.037.718a48.79,48.79,0,0,0-7.812,3.543,27.741,27.741,0,0,0-8.074,7.71,2.017,2.017,0,0,0,.717,2.737,2.046,2.046,0,0,0,2.737-.718Z"/><path class="d" d="M98.289,185.26a14.708,14.708,0,0,0,5.094,1.208,13.435,13.435,0,0,0,6.629-1.059,2.007,2.007,0,0,0,.717-2.737,2.059,2.059,0,0,0-2.736-.717c.186-.083.105-.039-.036.012s-.281.1-.424.147c-.221.07-.445.13-.672.182a4.621,4.621,0,0,1-.746.138c.168-.009.267-.031.038-.013-.136.011-.272.024-.408.034a15.143,15.143,0,0,1-2.362.013c-.14-.012-.281-.038-.421-.047.156.01.456.068.124.014l-.244-.039c-.359-.059-.718-.127-1.074-.2s-.715-.164-1.067-.267c-.135-.039-.268-.083-.4-.127-.473-.153.389.2.009.01a2,2,0,0,0-2.019,3.453Z"/><path class="a" d="M302.659,87.644a20.149,20.149,0,0,0,.271-2.294c.359-4.369,1.25-30.433,1.277-35.211.063-2.427-1.258-3.633-3.672-3.881-4.106-.42-7.886-.7-11.16-.791-3.06-.085-8.459-.231-12.262-.072-1.882.079-3.577,1.052-3.458,3.432-.2,3.832-1.285,31.156-1.23,35.575a10.338,10.338,0,0,0,.691,4.18,4.72,4.72,0,0,0,3.51,2.537,56.716,56.716,0,0,0,10.9,1.161c4.833.135,8.793.007,11.207-.616a5.331,5.331,0,0,0,3.358-2.395A5.815,5.815,0,0,0,302.659,87.644Z"/><path class="d" d="M304.208,47.463c3.7-4.725,1.415-12.458-4.672-13.769-3.724-.8-7.064,1.049-10.426,2.361-3.841,1.5-7.822-.308-11.746.538-3.941.85-6.737,5.717-3.566,9.014,1.788,1.859,4.615-.972,2.829-2.828-.8-.834.52-1.935,1.234-2.183,1.6-.556,3.49-.163,5.126-.017a18.1,18.1,0,0,0,5.684-.181,34.5,34.5,0,0,0,5.192-1.958c2.622-1.077,6.022-1.7,7.638,1.327a5,5,0,0,1,.5,2.852,6.486,6.486,0,0,1-.351,1.412c-.152.424.048-.041-.126.3-.047.091-.462.718-.141.308a2.067,2.067,0,0,0,0,2.829,2.014,2.014,0,0,0,2.829,0Z"/><path class="i" d="M298.452,61.758c-.234,6.221-.916,16.835-1.2,21.187a2.045,2.045,0,0,1-2.09,1.909c-3.6-.082-11.221-.279-14.855-.377a2.048,2.048,0,0,1-1.993-2.068c.045-4.415.179-15.06.358-21.326a2.039,2.039,0,0,1,2.052-1.986c4.921.021,12.283.365,15.8.545A2.04,2.04,0,0,1,298.452,61.758Z"/><path class="d" d="M304.587,88.176a83.267,83.267,0,0,0,.771-11.429q.314-7.659.554-15.321c.118-3.679.264-7.361.293-11.042.025-3.025-1.559-5.415-4.64-5.985a80.38,80.38,0,0,0-11.992-.926c-3.35-.1-6.7-.181-10.057-.139-3.057.038-6.716.221-7.677,3.789a21.2,21.2,0,0,0-.307,4.38q-.124,2.869-.237,5.738c-.351,8.779-.808,17.575-.87,26.362-.018,2.491.1,5.268,1.81,7.241,2.084,2.4,5.693,2.638,8.642,2.987a82.862,82.862,0,0,0,11.787.475c3.089-.077,6.785-.106,9.357-2.048a6.8,6.8,0,0,0,2.566-4.082c.581-2.5-3.275-3.575-3.857-1.064a3.054,3.054,0,0,1-2.116,2.5,14.065,14.065,0,0,1-3.832.6,81.07,81.07,0,0,1-10.91-.106c-1.366-.094-2.735-.216-4.089-.425-1.306-.2-3.04-.3-4.136-1.1-1.351-.99-1.234-3.273-1.222-4.98.055-7.925.459-15.857.768-23.775.131-3.352.26-6.705.416-10.056a9.918,9.918,0,0,1,.048-1.437c.21-.993,1.335-.939,2.164-.965,3.108-.1,6.221-.037,9.329.038,3.346.082,6.682.243,10.017.531,1.309.113,3.228-.054,4.4.623.667.386.647,1.047.642,1.77-.023,3.243-.149,6.487-.251,9.728q-.245,7.821-.554,15.638c-.15,3.739,0,7.719-.671,11.414C300.272,89.629,304.126,90.708,304.587,88.176Z"/><path class="d" d="M294.88,156.718c-3.842-4.649-5.223-10.832-4.743-16.751a33.217,33.217,0,0,1,2.336-9.459c.368-.93.777-2.642,1.767-3.141,1.18-.595,3.178-.358,4.469-.338a51,51,0,0,1,9.62,1.174,44.785,44.785,0,0,1,4.374,1.12,10.434,10.434,0,0,1,3.232,1.364,4.313,4.313,0,0,1,1.27,2.926,23.43,23.43,0,0,1,.3,4.658,23.823,23.823,0,0,1-1.976,8.88,24.538,24.538,0,0,1-12.941,12.568,2.012,2.012,0,0,0-.718,2.736,2.055,2.055,0,0,0,2.737.718,27.953,27.953,0,0,0,14.007-13.216,28.592,28.592,0,0,0,2.836-10.6,27.083,27.083,0,0,0-.179-5.415,10.611,10.611,0,0,0-1.47-4.893c-1.8-2.552-5.232-3.434-8.111-4.171a59.557,59.557,0,0,0-11.622-1.8c-3.27-.168-7.591-.455-9.694,2.564a21.852,21.852,0,0,0-2.24,5.1,35.944,35.944,0,0,0-1.5,5.528c-1.517,8.21.026,16.76,5.419,23.284,1.641,1.985,4.457-.858,2.828-2.829Z"/><path class="h" d="M306.663,152.672a15.385,15.385,0,0,0,2.466-2.353,1.785,1.785,0,0,0-.282-2.542,18.587,18.587,0,0,0-12.721-3.789,1.88,1.88,0,0,0-1.659,2.234,14.19,14.19,0,0,0,1.944,5.085,4.448,4.448,0,0,0,2.392,1.808l1.631.534A6.8,6.8,0,0,0,306.663,152.672Z"/><path class="d" d="M296.38,133.914A18.707,18.707,0,0,0,313.109,136a2.053,2.053,0,0,0,1.4-2.46,2.016,2.016,0,0,0-2.46-1.4A14.81,14.81,0,0,1,298.4,130.46a2.019,2.019,0,0,0-2.736.717,2.04,2.04,0,0,0,.717,2.737Z"/><path class="d" d="M295.086,164.47q-3,13.085-4.764,26.4c-.144,1.072,1.022,2,2,2a2.053,2.053,0,0,0,2-2c1.143-8.511,2.7-16.965,4.621-25.334.574-2.506-3.281-3.576-3.857-1.064Z"/><path class="a" d="M314.612,170.821c-3.31-2.984-5.472-5.268-8.782-8.253-1.114-1-3.2-2.749-4.389-3.666-1.222-.945-3.166-1.723-4.666-.471-1.932,1.611-1.382,3.112-.834,3.773,1.663,2.006,3.472,3.883,5.3,5.743l-1.4.351a4.274,4.274,0,0,0-2.958,2.942c-1.9-1.246-4.289-2.464-5.607.236-.778,1.592.444,3.444,2.275,4.513a2.171,2.171,0,0,0-2.738,1.913c-.232,1.722,1.313,3.2,3.268,4.389a37.239,37.239,0,0,1,4.556,3.25,12,12,0,0,1,2.85,2.916"/><path class="d" d="M317,169.765c-2.99-2.829-5.821-5.819-8.8-8.664-1.27-1.214-2.58-2.384-3.914-3.527a13.22,13.22,0,0,0-4.166-2.808c-3.61-1.228-7.9,1.91-7.2,5.856.284,1.616,1.484,2.787,2.51,3.993,1.378,1.62,2.825,3.18,4.279,4.731l.882-3.343a11.811,11.811,0,0,0-3.381,1.182,5.874,5.874,0,0,0-2.422,3.393l2.46-1.4c-2.912-1.044-5.9-.885-7.666,2a5.1,5.1,0,0,0,2.46,7.183l1.009-3.727a4.8,4.8,0,0,0-4.991,3.421,5.834,5.834,0,0,0,1.729,5.791c2.953,3.057,7.59,4.5,9.875,8.277,1.331,2.2,4.791.192,3.454-2.019-1.711-2.828-4.786-5.034-7.483-6.874-1.216-.829-2.82-1.575-3.568-2.914-.51-.91-.1-1.81.984-1.682,1.929.226,2.79-2.951,1.01-3.727-.877-.382-1.517-1.03-.9-1.871.746-1.021,2.032-.357,3.026,0a2.028,2.028,0,0,0,2.46-1.4c.432-1.387,1.763-1.455,3.01-1.781a2.021,2.021,0,0,0,.882-3.343c-1.142-1.218-2.28-2.441-3.383-3.7q-.828-.942-1.627-1.909c-.193-.234-.65-.849-.66-.89-.138-.583.632-1.543,1.39-1.584,1-.054,1.946.9,2.649,1.492,4.684,3.952,8.821,8.459,13.266,12.664,1.87,1.768,4.7-1.055,2.828-2.829Z"/><path class="d" d="M293.116,178.866q.6.168,1.179.38c.185.068.367.142.551.213.265.1-.444-.2,0,0,.09.041.182.081.272.123a20.17,20.17,0,0,1,2.257,1.227q.516.325,1.014.678c.186.132.368.27.552.4.23.169-.264-.213-.044-.034.079.064.159.126.237.19a22.5,22.5,0,0,1,1.931,1.76,2,2,0,0,0,2.829-2.829,22.447,22.447,0,0,0-9.716-5.971,2,2,0,0,0-1.064,3.857Z"/><path class="d" d="M296.842,173.338c.8.3,1.6.617,2.4.939.27.109-.313-.136-.047-.02l.356.154q.284.125.565.255.594.273,1.175.574a19.827,19.827,0,0,1,2.145,1.279c.085.059.466.255.487.351-.015-.068-.281-.226-.05-.039.077.063.155.125.231.189.345.287.673.592.988.911a2,2,0,0,0,2.828-2.829c-2.748-2.782-6.42-4.271-10.015-5.621a2.009,2.009,0,0,0-2.46,1.4,2.054,2.054,0,0,0,1.4,2.46Z"/><path class="d" d="M312.047,176.192a15.356,15.356,0,0,1-5.8,14.462,2.011,2.011,0,0,0,0,2.829,2.052,2.052,0,0,0,2.828,0,19.243,19.243,0,0,0,6.828-18.354,2.017,2.017,0,0,0-2.461-1.4,2.045,2.045,0,0,0-1.4,2.46Z"/><path class="f" d="M67.593,160.712c-.5-.377-1.044-.785-1.585-1.127a1.837,1.837,0,0,1-.82-1.24c-.1-.55-.16-1.05-.22-1.54a1.827,1.827,0,0,0-1.81-1.61c-6.49,0-17.03-.05-21.02-.05a1.932,1.932,0,0,0-1.88,1.66c-.05.49-.12.99-.21,1.54a1.851,1.851,0,0,1-.83,1.24c-.6.38-1.2.84-1.74,1.25a1.8,1.8,0,0,0-.73,1.45c0,.592-.007,10.482-.014,19.043,7.652.185,12.985.407,15.874,4.518,3.928,5.59,15.98,2.556,15.98,2.556,0-4.98-.09-20.737-.1-26.117a1.833,1.833,0,0,0-.73-1.45Z"/><path class="d" d="M38.728,171.965q.009-4.525.019-9.052c0-.15.015-.6,0-.575.284-.463,1.277-.88,1.725-1.214a3.909,3.909,0,0,0,1.424-1.949c.113-.346.127-1.91.275-2.02.323-.242,2.026-.007,2.549-.006l3.764.011q4.6.014,9.211.027,2.1.006,4.2.007a4.015,4.015,0,0,0,.955,0c.424-.123.3.174.117-.191.392.777.173,1.822.568,2.648a3.828,3.828,0,0,0,1.22,1.472c.465.348,1.413.745,1.728,1.214a8.774,8.774,0,0,1,.009,2.017q.023,6.9.052,13.8c.018,4.663.042,9.326.043,13.988,0,2.574,4,2.579,4,0,0-9.459-.069-18.918-.1-28.378a6.557,6.557,0,0,0-.48-3.3,6.209,6.209,0,0,0-1.925-1.868c-.262-.191-.909-.474-1.07-.742.13.216.013-.573,0-.683-.279-1.927-1.152-3.56-3.25-3.91a29.106,29.106,0,0,0-4.614-.075q-4.985-.009-9.97-.028l-4.317-.013a16.212,16.212,0,0,0-3.6.1,3.963,3.963,0,0,0-2.428,1.757c-.557.923-.375,1.858-.716,2.806-.015.045-.012.214.09.045-.106.175-.545.364-.717.486-.415.3-.829.6-1.226.92a3.849,3.849,0,0,0-1.486,2.684c-.319,3.284-.045,6.722-.052,10.017-.005,2.574,3.995,2.578,4,0Z"/><path class="d" d="M43.723,165.609c5.682,0,11.364.032,17.046.033,2.574,0,2.578-4,0-4-5.682,0-11.364-.032-17.046-.033-2.573,0-2.578,4,0,4Z"/><path class="a" d="M72.048,175.475a5.355,5.355,0,0,0-3.524-1.667,3.35,3.35,0,0,0-3.41,2.135,5.053,5.053,0,0,0,.085,2.326c.418,2.151.781,6.839,1.546,7.952a4.235,4.235,0,0,0,6.183.521,4.09,4.09,0,0,0,1.461-3.154,13.287,13.287,0,0,0-.993-6.207A7.049,7.049,0,0,0,72.048,175.475Z"/><path class="d" d="M73.463,174.061a7.407,7.407,0,0,0-5.113-2.256,5.586,5.586,0,0,0-4.6,2.366c-1.092,1.632-.663,3.468-.373,5.262.2,1.241.344,2.49.532,3.733a15.259,15.259,0,0,0,.708,3.208,5.55,5.55,0,0,0,3.547,3.2,6.489,6.489,0,0,0,7.993-4.328,13.99,13.99,0,0,0,0-5.6,10.259,10.259,0,0,0-2.7-5.589,2,2,0,0,0-2.829,2.828,3.962,3.962,0,0,1,.5.582,8.44,8.44,0,0,1,.438.73,7.3,7.3,0,0,1,.605,1.845,8.544,8.544,0,0,1,.2,1.606,19.734,19.734,0,0,1,.009,2.035c-.005.093-.021.189-.02.282,0,.264.125-.514.006-.074-.053.195-.112.394-.161.591.083-.332.064-.115,0-.007-.078.134-.148.27-.235.4-.175.257.308-.25-.134.147-.085.076-.581.478-.172.185a4.864,4.864,0,0,1-.539.338c-.095.051-.191.1-.288.142.394-.182.064-.028-.048,0-.236.059-.464.127-.7.167.486-.08-.267-.026-.434-.028-.469,0,.215.106-.029-.006a1.741,1.741,0,0,0-.316-.08c-.115-.028-.43-.187-.061,0-.1-.05-.2-.1-.3-.157s-.195-.121-.287-.187c.308.223,0-.02-.071-.089a4.278,4.278,0,0,1-.315-.345c.1.123.242.248.074.043-.15-.184.144.48.017.008-.048-.178-.107-.354-.153-.534-.116-.456-.2-.92-.286-1.384-.18-1.034-.316-2.076-.458-3.116-.064-.466-.128-.932-.2-1.4-.031-.2-.063-.4-.1-.6-.014-.08-.03-.16-.045-.24,0,.011-.11-.584-.084-.4a2.446,2.446,0,0,1,0-.86l.053-.164c-.083.189-.09.22-.023.093a2.264,2.264,0,0,1,.135-.214q-.186.24-.042.082c-.008-.067.417-.329.05-.074.119-.082.245-.152.371-.224.268-.153-.426.1.085-.039.171-.046.338-.095.512-.133-.085.019-.392.015-.009.008.186,0,.364,0,.549.011-.323-.026-.008,0,.058.019.191.053.382.1.57.162.388.133.144.066.069.029a5.627,5.627,0,0,1,.521.29c-.044-.028.484.345.288.192-.066-.052.328.3.4.376a2,2,0,1,0,2.829-2.828Z"/><path class="d" d="M306.534,53.669a4.075,4.075,0,0,1,.376-.183l-.478.2a3.679,3.679,0,0,1,.792-.213l-.532.071a3.9,3.9,0,0,1,.984,0l-.532-.071a4.216,4.216,0,0,1,.967.266l-.478-.2a4.275,4.275,0,0,1,.46.228c.076.043.149.089.222.137s.3.219.011,0c-.3-.235-.025-.016.038.039s.11.1.164.151c.127.125.231.29.365.405l-.2-.258c.036.05.072.1.106.153s.085.133.125.2c.1.167.189.339.279.511.212.4.411.815.591,1.234l-.2-.478a7.934,7.934,0,0,1,.567,1.874l-.071-.532c.009.066.017.131.023.2a2.164,2.164,0,0,0,.586,1.414,2,2,0,0,0,2.828,0,1.938,1.938,0,0,0,.586-1.414,11.249,11.249,0,0,0-1.2-3.81A7.385,7.385,0,0,0,311.056,51a6.4,6.4,0,0,0-3.38-1.451,5.33,5.33,0,0,0-3.161.668,2.019,2.019,0,0,0-.717,2.736,2.041,2.041,0,0,0,2.736.718Z"/><path class="d" d="M325.224,83.522a22.468,22.468,0,0,0,1.843-12c-.372-3.58-1.011-7.741-2.895-10.882-1.784-2.976-4.929-4.327-8.3-4.5a23.934,23.934,0,0,0-5.607.452,13.353,13.353,0,0,0-5.168,1.824,5.5,5.5,0,0,0-2.615,5.273,5,5,0,0,0,3.461,4.32V64.148a5.542,5.542,0,0,0-4.464,4.87c-.231,2.695,1.619,4.652,3.944,5.63V70.791c-3.869.586-4.872,5.814-2.368,8.371a7.122,7.122,0,0,0,5.336,1.816c2.059.018,4.117.059,6.175.053,2.573-.007,2.578-4.007,0-4-1.294,0-2.587-.008-3.881-.026a17.62,17.62,0,0,1-3.784-.117c-1.113-.273-2.027-2-.415-2.24a2.008,2.008,0,0,0,1.469-1.929,2.1,2.1,0,0,0-1.469-1.928,1.563,1.563,0,0,1-1.024-1.562c.121-.792.857-1.064,1.544-1.224,2.1-.49,1.684-3.19,0-3.857-.919-.364-.653-1.6-.022-2.159,1.16-1.027,3.061-1.317,4.533-1.579,2.614-.466,6.189-.793,8.32,1.155a6.96,6.96,0,0,1,1.755,3.119,38.077,38.077,0,0,1,1.294,5.508A19.44,19.44,0,0,1,321.77,81.5a2.057,2.057,0,0,0,.717,2.737,2.018,2.018,0,0,0,2.737-.718Z"/><path class="d" d="M314.79,63.444c-2.542.247-5.1.357-7.644.521a2,2,0,0,0,0,4c2.548-.164,5.1-.274,7.644-.521a2.153,2.153,0,0,0,1.414-.585,2,2,0,0,0-1.414-3.415Z"/><path class="a" d="M41.978,192.068c2.461-.393,4.644-.888,7.26-1.333,2.259-.667,2.981-1.889,3.111-3.492a2.818,2.818,0,0,0-2.824-2.654,3.6,3.6,0,0,0,1.92-3.724,3.46,3.46,0,0,0-3.512-2.746c1.4-.778,1.7-1.736,1.54-3.328-.163-1.675-2-2.767-3.573-3.078-3.325-.659-8-.411-10.7.776-3.111,1.5-4.093,3.739-4.486,7.171-.684,5.977-.365,7.223-.069,12.927Z"/><path class="d" d="M315.016,70.019c-2.8.215-5.6.269-8.39.589a2.181,2.181,0,0,0-1.414.586,2.033,2.033,0,0,0-.586,1.414c.044.981.887,2.128,2,2,2.788-.32,5.594-.374,8.39-.589a2,2,0,0,0,0-4Z"/><path class="d" d="M39.63,180.845c2.549-.169,5.086-.475,7.627-.728a2.158,2.158,0,0,0,1.414-.585,2,2,0,0,0-1.414-3.415c-2.541.253-5.078.559-7.627.728a2,2,0,1,0,0,4Z"/><path class="d" d="M40.475,187.369c2.794-.241,5.571-.645,8.374-.781a2,2,0,0,0,0-4c-2.8.136-5.58.54-8.374.781a2,2,0,1,0,0,4Z"/><path class="d" d="M42.51,194c2.025-.33,4.032-.751,6.05-1.12a6.986,6.986,0,0,0,4.827-2.617,5.089,5.089,0,0,0,.669-4.573,4.906,4.906,0,0,0-4.531-3.1l1.01,3.727a5.386,5.386,0,0,0-2.6-10.2l1.009,3.727a4.877,4.877,0,0,0,2.556-4.04,5.228,5.228,0,0,0-1.87-4.48c-2.606-2.143-6.619-2.161-9.819-1.877s-6.573,1.09-8.725,3.674S28.71,179.1,28.451,182.3a76.679,76.679,0,0,0,.194,10.29c.136,2.561,4.137,2.577,4,0a81.322,81.322,0,0,1-.263-9.338c.161-2.6.135-6.068,2.131-7.944,2.12-1.993,5.8-2.051,8.524-1.924,1.289.06,2.923.1,3.981.954a1.2,1.2,0,0,1-.095,2.057,2.017,2.017,0,0,0,1.01,3.727c1.759.113,2,1.856.583,2.743a2.016,2.016,0,0,0,1.009,3.727.757.757,0,0,1,.794.818c-.1.609-.348.883-1.043,1.2a16.881,16.881,0,0,1-3.7.777c-1.375.265-2.75.53-4.132.756a2.015,2.015,0,0,0-1.4,2.46,2.048,2.048,0,0,0,2.46,1.4Z"/><path class="d" d="M2.232,200.649q7.649,0,15.3-.008,14.255-.009,28.508-.023,19.1-.017,38.192-.037,22.407-.022,44.812-.049,23.882-.027,47.761-.059,23.77-.032,47.542-.068,22-.035,44-.076,18.564-.034,37.13-.081,13.506-.034,27.014-.086c4.453-.018,8.908-.007,13.361-.087.4-.008.793-.021,1.19-.021,2.574,0,2.578-4,0-4-3.3,0-6.607.07-9.91.087q-12,.061-24,.087-17.472.048-34.946.082-21.4.043-42.8.077-23.5.039-46.994.07-24.006.033-48.011.062l-45.706.051q-20.037.021-40.074.04-15.606.015-31.213.027-9.393.007-18.784.012H2.232c-2.574,0-2.578,4,0,4Z"/><path class="d" d="M14.052,103.652q22.311-.009,44.622-.024l64.276-.04q36.064-.021,72.129-.045,34.519-.024,69.039-.043,32.438-.018,64.874-.039l5.759,0c2.574,0,2.578-4,0-4q-30.951.012-61.9.035-34.453.023-68.906.043l-72.343.046-65.631.04q-23.926.015-47.855.027l-4.062,0c-2.573,0-2.578,4,0,4Z"/><path class="d" d="M176.847,186.5q-.052-30.153-.131-60.306-.086-37.032-.172-74.065-.047-19.031-.09-38.062c0-2.573-4-2.578-4,0q.079,35.231.166,70.459.084,35.931.165,71.862.033,15.055.062,30.112c0,2.573,4,2.578,4,0Z"/><path class="a" d="M71.613,91.47a5.041,5.041,0,0,0,.687-.629,6.139,6.139,0,0,0,1.646-4.02,30.762,30.762,0,0,0-.443-4.344c-1.582-9.628-2.887-16.821-4.373-25.8a5.415,5.415,0,0,0-1.746-3.516c-1.444-1.206-2.348-1.265-4.206-1.171a24.229,24.229,0,0,0-3.5.661,23.023,23.023,0,0,1-.7-2.648,2.185,2.185,0,0,0-2.549-1.721c-2.382.418-6.041,1.411-8.09,1.935a1.49,1.49,0,0,0-1.085,1.763l.5,2.3c-2.238.659-4.466,1.1-5.8,2.925a5.783,5.783,0,0,0-.722,4.423c1.162,6.391,5.914,26.749,6.8,30.177a5.111,5.111,0,0,0,2.416,3.273,7.252,7.252,0,0,0,4.192.417A94.847,94.847,0,0,0,67.366,93.25,11.545,11.545,0,0,0,71.613,91.47Z"/><path class="d" d="M73.027,92.884c4.154-3.363,2.763-8.8,2.008-13.337-.747-4.491-1.523-8.978-2.294-13.465q-.585-3.4-1.16-6.81c-.337-2.006-.457-4.232-1.525-6.016-2.446-4.089-6.966-3.425-10.912-2.535l2.46,1.4c-.717-2.223-.887-4.873-3.517-5.678-2.155-.659-5.019.5-7.124,1.031-2.087.53-5.034.8-5.637,3.318-.309,1.29.22,2.76.494,4.024l1.4-2.46c-2.782.808-6,1.649-7.384,4.495-1.122,2.3-.675,4.694-.2,7.084.825,4.119,1.753,8.219,2.682,12.315q1.419,6.26,2.9,12.5c.271,1.138.53,2.281.83,3.412A6.916,6.916,0,0,0,52.475,97.6a29.838,29.838,0,0,0,5.794-.555q2.453-.342,4.881-.82c3.165-.628,6.792-1.1,9.472-3.025a2.056,2.056,0,0,0,.718-2.736,2.017,2.017,0,0,0-2.737-.718c-2.128,1.526-4.943,1.877-7.453,2.4s-5.036.944-7.581,1.243c-1.255.148-2.928.546-4.122-.037A3.247,3.247,0,0,1,49.906,91.1c-.282-1.063-.525-2.137-.781-3.206-1.772-7.425-3.493-14.867-5.075-22.335-.327-1.544-.755-3.122-.93-4.693-.371-3.335,2.584-3.908,5.16-4.656a2.045,2.045,0,0,0,1.4-2.46c-.092-.427-.162-1.956-.474-2.19.031.023-.416.477-.336.584.019.025.842-.217.877-.227.761-.2,1.521-.4,2.283-.588.825-.21,1.652-.415,2.481-.607a7.284,7.284,0,0,1,2.131-.455c.343.053.212.007.406.267a3.826,3.826,0,0,1,.254,1.108c.13.52.284,1.03.448,1.54a2.049,2.049,0,0,0,2.46,1.4,12.193,12.193,0,0,1,4.559-.592c1.435.245,2.1,1.556,2.368,2.845.768,3.68,1.256,7.443,1.894,11.149q.966,5.616,1.917,11.235c.342,2.041.759,4.088.925,6.153.155,1.924-.1,3.416-1.671,4.687a2.011,2.011,0,0,0,0,2.828A2.046,2.046,0,0,0,73.027,92.884Z"/><path class="a" d="M40.96,89.465a12.835,12.835,0,0,0,4.016.858,19.707,19.707,0,0,0,5.718-.43,16.965,16.965,0,0,0,4.316-1.542A4.9,4.9,0,0,0,57.644,85.2a3,3,0,0,0-1.779-3.443,4.161,4.161,0,0,0,3.641-2.638,2.744,2.744,0,0,0-2.168-3.521,2.818,2.818,0,0,0,1.484-4.652c-.825-.9-2.163-.96-3.378-1.1a37.609,37.609,0,0,0-10,.324l.221-.112a50.243,50.243,0,0,0,5.9-4.426,2.716,2.716,0,0,0,.482-3.636,3.139,3.139,0,0,0-2.472-1.231c-2.671-.2-7.547,2.816-9.495,4.439-3.484,2.644-5.237,8.588-5.049,12.943.184,4.246.665,6.986,3.709,9.951A6.922,6.922,0,0,0,40.96,89.465Z"/><path class="d" d="M45.088,72.258a34.552,34.552,0,0,1,8.439-.578c.968.046,2.7-.065,3.568.452.767.459.475,1.317-.288,1.533-2.331.661-1.584,3.653.531,3.929-.209-.027.113.165.206.37a.866.866,0,0,1,0,.688,2.2,2.2,0,0,1-1.679,1.1,2.011,2.011,0,0,0-.532,3.928c.51.2.388,1.133.227,1.49a4.566,4.566,0,0,1-2.581,1.938,17.6,17.6,0,0,1-7.541,1.239,8.078,8.078,0,0,1-5.829-2.227,9.391,9.391,0,0,1-2.377-5.251c-.581-4.189-.033-8.714,2.38-12.282a12.558,12.558,0,0,1,4.018-3.466,14.579,14.579,0,0,1,5.209-2.35c.556-.079,1.673-.041,1.713.718.033.638-1.149,1.385-1.575,1.728a30.743,30.743,0,0,1-4.322,3.1c-2.256,1.241-.24,4.7,2.019,3.454A36.505,36.505,0,0,0,52.111,67.8c2.5-2.064,3.488-5.589.645-7.9-2.463-2-5.716-.978-8.284.209a23.237,23.237,0,0,0-6.758,4.513c-4.326,4.42-5.219,11.283-4.363,17.144A13.1,13.1,0,0,0,37.322,89.5c2.426,2.275,5.963,2.877,9.175,2.868,3.693-.01,8.262-.88,11.1-3.409,3.011-2.682,2.714-7.569-1.2-9.138l-.532,3.929c2.621-.345,5.234-1.843,5.679-4.681a4.742,4.742,0,0,0-4.206-5.478l.532,3.928a4.806,4.806,0,0,0-.418-9.423,35.193,35.193,0,0,0-13.427.3c-2.522.508-1.455,4.364,1.063,3.857Z"/><path class="d" d="M45.761,79.442a42.37,42.37,0,0,1,5.667-1.269c.071-.011.723-.105.423-.064.212-.029.424-.055.637-.08q.691-.082,1.385-.145c.97-.09,1.942-.152,2.914-.2a2,2,0,1,0,0-4,51.053,51.053,0,0,0-12.09,1.9,2,2,0,0,0,1.064,3.857Z"/><path class="d" d="M47.117,85.685c1.338-.222,2.672-.473,4-.737A43.563,43.563,0,0,0,55.8,83.853,2,2,0,1,0,54.738,80a43.563,43.563,0,0,1-4.682,1.095c-1.33.264-2.664.515-4,.737a2.007,2.007,0,0,0-1.4,2.46,2.058,2.058,0,0,0,2.46,1.4Z"/><path class="d" d="M325.381,29.5q.836-.762,1.711-1.478.457-.375.924-.74l.221-.173c.2-.154.033-.011-.072.056.176-.111.338-.259.5-.384,1.26-.953,2.547-1.87,3.83-2.792a2.155,2.155,0,0,0,.919-1.195,2,2,0,0,0-2.938-2.259,85.773,85.773,0,0,0-7.927,6.137,2.014,2.014,0,0,0,0,2.828,2.044,2.044,0,0,0,2.828,0Z"/><path class="d" d="M318.22,23.077c.256-.717.522-1.436.828-2.133-.2.45.091-.207.125-.286.067-.153.134-.3.2-.458q.24-.535.487-1.068c.665-1.428,1.368-2.838,2.067-4.25a2,2,0,1,0-3.453-2.018,86.077,86.077,0,0,0-4.113,9.149,2.012,2.012,0,0,0,1.4,2.461,2.051,2.051,0,0,0,2.46-1.4Z"/><path class="d" d="M327.284,38.235h8a2,2,0,0,0,0-4h-8a2,2,0,0,0,0,4Z"/></svg>