<svg xmlns="http://www.w3.org/2000/svg" width="226.701" height="276.354" viewBox="0 0 226.701 276.354"><defs><style>.a{fill:#fff;}.b{fill:#b3b3b3;}.c{fill:#3d8dcc;}.d{fill:#211715;}.e{fill:#85807f;}.f{fill:#febe69;}</style></defs><path class="a" d="M138,190.656c4.947-16.268,9.86-35.63,10.883-43.805l1.256-10.044s.086-.686.239-1.87a38.35,38.35,0,0,1-22.124,2.147c-1.791-.319-3.512-.714-5.182-1.187a70.5,70.5,0,0,1-13.969-6.178,61.71,61.71,0,0,1-13.354-11.457,57.291,57.291,0,0,1-3.388-4.635c-2.1,9.608-3.049,12.659-4.845,14.858a4.821,4.821,0,0,1-.539.551l1.946,9.215a241.628,241.628,0,0,0,6.87,23.451c7.007,20.437,19.819,56.681,24.674,68.512l2.385-.52c3.4-7.644,5.189-11.547,8.255-18.911C133.1,205.978,135.554,198.7,138,190.656Z"/><path class="b" d="M180.81,269.681c10.693,5.944,29.554,4,37.148-6.154,3.5-4.668,6.478-12.337,6.355-17.631-.239-10.23-2.607-21.2-9.138-37.174-5.485-13.421-12.188-30.838-18.84-43.754a33.878,33.878,0,0,0-6.5-9.23,24.566,24.566,0,0,0-5.906-4.7c-7.761-4.921-23.169-10.738-32.384-13.772l-1.406-.463-1.256,10.044c-1.528,12.214-11.741,49.4-17.776,63.932-3.066,7.364-4.853,11.267-8.255,18.911l-2.385.52C115.61,218.383,102.8,182.139,95.791,161.7a241.628,241.628,0,0,1-6.87-23.451l-1.946-9.215c-6.957,2.776-23.3,8.628-30.852,11.353-8.835,3.2-16.349,6.689-22.831,13.491-5.832,6.1-11.953,19.146-15.834,32.709-7.7,26.888-9.754,36.229-12.283,50.153-1.135,5.935-3.013,18.414-2.848,22.77A84.6,84.6,0,0,0,4.1,273.023H198.125"/><path class="a" d="M178.116,254.549c.462.252,1.017-.081,1.42-.418a17.312,17.312,0,0,0,5.886-9.475c.9-4.175,1.434-6.78,1.132-11.227l-.034-.422c.218-.1.433-.2.646-.3a9.766,9.766,0,0,0,4.8-4.47,5.018,5.018,0,0,0,.4-1.308c4.237,1.852,8.487,6.47,9.971,13.183a22.834,22.834,0,0,1-.466,10.664c-1.692,5.452-3.672,8.623-10.3,10.366-2.677.7-7.619.72-10.192-.269Z"/><path class="c" d="M131.723,180.861c-.089-.909-.185-1.883-.29-2.941-.336-3.41-1.069-7.434-1.65-11.1,1.293-2.808,3.507-7.917,4.74-11.035,0,0,.1-.263.281-.711-2.519-2.78-4.772-4.97-7.642-7.646-2.955,1.786-8.115,4.653-12.6,7.491,1.2,4.2,2.358,9.1,3.369,13.305-.093,1.379-4.3,22.072-5.54,26.41l-2.258,7.89c4.231,11.771,8.113,22.282,10.333,27.691l2.385-.52c3.4-7.644,5.189-11.547,8.255-18.911.515-1.238,1.059-2.641,1.627-4.179C132.757,192.435,132.588,189.693,131.723,180.861Z"/><path class="d" d="M132.208,155.146c-1.254,3.16-2.608,6.283-4.006,9.382a5.014,5.014,0,0,0-.733,2.929c.175,1.2.39,2.4.586,3.6.329,2.007.662,4.015.89,6.036a211.044,211.044,0,0,1,1.372,21.892c.026,3.087,4.826,3.094,4.8,0a219.075,219.075,0,0,0-3.02-32.8l-.242,1.85c1.756-3.825,3.429-7.7,4.982-11.609a2.419,2.419,0,0,0-1.676-2.953,2.459,2.459,0,0,0-2.953,1.677Z"/><path class="d" d="M129.129,165.364c-3.112-.231-6.227-.47-9.344-.634a2.416,2.416,0,0,0-2.4,2.4,2.452,2.452,0,0,0,2.4,2.4c3.117.164,6.232.4,9.344.634a2.411,2.411,0,0,0,2.4-2.4,2.459,2.459,0,0,0-2.4-2.4Z"/><path class="d" d="M138.837,156.034a129.045,129.045,0,0,0-9.978-10.3,2.461,2.461,0,0,0-2.909-.375c-5.046,3.04-10.232,5.844-15.123,9.137-2.549,1.716-.149,5.876,2.423,4.144,4.891-3.292,10.077-6.1,15.123-9.136l-2.908-.375a128.709,128.709,0,0,1,9.978,10.3,2.421,2.421,0,0,0,3.394,0,2.45,2.45,0,0,0,0-3.4Z"/><path class="d" d="M54.615,222.109l-6.19,30.556a2.46,2.46,0,0,0,1.676,2.952,2.422,2.422,0,0,0,2.952-1.676l6.19-30.556a2.46,2.46,0,0,0-1.676-2.952,2.422,2.422,0,0,0-2.952,1.676Z"/><path class="d" d="M71.042,143.171a35.894,35.894,0,0,0-4.624,8.341c-.427,1.067-.854,2.282-.211,3.364a5.114,5.114,0,0,0,1.833,1.562c3.867,2.393,8.023,4.345,12.042,6.466l-.486-3.77c-1.841,1.847-3.693,3.683-5.511,5.552-1.711,1.759-3.927,3.572-4.935,5.847-1.069,2.411-.4,4.482.894,6.609q1.482,2.436,2.924,4.894c4.8,8.145,9.454,16.372,14.262,24.511q4.722,8,9.64,15.874c1.637,2.611,5.792.205,4.144-2.422-5.348-8.531-10.46-17.2-15.5-25.918-2.156-3.721-4.3-7.45-6.464-11.166q-1.443-2.48-2.906-4.948a49.624,49.624,0,0,1-2.639-4.362c-.339-.738.088-1.359.572-1.928.919-1.078,1.944-2.085,2.928-3.1,1.972-2.039,3.987-4.036,5.99-6.046a2.422,2.422,0,0,0-.486-3.769c-2.483-1.311-4.982-2.593-7.459-3.914-1.19-.635-2.379-1.273-3.55-1.944-.439-.251-.881-.5-1.306-.779-.139-.09-.278-.212-.425-.287a1.534,1.534,0,0,1,.809,1.135v1.276a12.408,12.408,0,0,1,1.445-3.506,34.209,34.209,0,0,1,3.169-5.146,2.414,2.414,0,0,0-.861-3.284,2.462,2.462,0,0,0-3.284.861Z"/><path class="d" d="M146.481,146.851c-.055.429.08-.527-.013.1-.026.174-.051.348-.077.522-.07.47-.147.94-.226,1.408-.164.961-.343,1.919-.531,2.875-.46,2.341-.974,4.672-1.511,7-1.3,5.617-2.741,11.2-4.261,16.763a337.385,337.385,0,0,1-10.1,32.2c-2.7,7.036-5.918,13.885-8.981,20.768l1.434-1.1-2.385.52,2.953,1.676c-4.249-10.372-7.94-20.989-11.714-31.54-4.534-12.679-9.015-25.38-13.355-38.127-2.5-7.345-4.552-14.782-6.476-22.3-.766-2.99-5.4-1.723-4.629,1.276,1.691,6.6,3.433,13.176,5.584,19.646,2.028,6.1,4.164,12.163,6.283,18.231,4.54,13,9.133,25.982,13.889,38.9,1.869,5.082,3.736,10.171,5.789,15.182a2.479,2.479,0,0,0,2.952,1.676c.785-.171,1.62-.277,2.385-.52,1.325-.42,1.694-1.687,2.206-2.836q.658-1.475,1.316-2.949c1.519-3.4,3.029-6.812,4.49-10.242,2.251-5.286,4.288-10.61,6.088-16.066,4.033-12.226,7.52-24.663,10.525-37.181a148.376,148.376,0,0,0,3.168-15.883,2.413,2.413,0,0,0-2.4-2.4,2.46,2.46,0,0,0-2.4,2.4Z"/><path class="d" d="M162.224,154.1a30.931,30.931,0,0,1,3.307,5.429c.161.333.905,2.3.959,2.309a9,9,0,0,1,.656-1.216c-.048-.024-.245.112-.3.121a16.238,16.238,0,0,0-3.034,1.219,12.985,12.985,0,0,0-2.842,1.288,4.217,4.217,0,0,0-.952,5.511,14.929,14.929,0,0,0,1.966,2.353c.818.918,1.637,1.836,2.443,2.764.351.4.7.81,1.046,1.22.29.344.62.982,1,1.214l.14.173q.271-1.527-.073-.857a2.6,2.6,0,0,0-.266.451q-.42.711-.841,1.42-1.579,2.659-3.18,5.307c-2.691,4.46-5.479,8.862-8.043,13.4l-6.685,11.821-5.033,8.9c-1.523,2.692,2.623,5.114,4.145,2.422l11.423-20.2c2.517-4.451,5.232-8.778,7.877-13.155q1.683-2.784,3.348-5.577c1.116-1.875,2.768-3.963,1.547-6.206-1.05-1.928-2.938-3.651-4.389-5.287a19.626,19.626,0,0,0-2.212-2.458c-.4-.314.144-.207-.219.39-.153.251-1,.546-.472.358,1.134-.4,2.244-.9,3.361-1.35a9.8,9.8,0,0,0,3.418-1.715c1.894-1.921.481-4.642-.458-6.647a36.26,36.26,0,0,0-4.244-6.793,2.413,2.413,0,0,0-3.4,0,2.464,2.464,0,0,0,0,3.394Z"/><path class="a" d="M83.678,75.014a7.634,7.634,0,0,0-5.386-1.691c-3.815.24-5.385,2.256-6.048,3.431-1.98,3.513-1.7,9.858-.18,13.751a19.99,19.99,0,0,0,6.746,9.519,14.547,14.547,0,0,0,7.692,2.3c.29.766.475,1.258.475,1.258.7,1.873,2.465,5.2,2.465,5.2a63.885,63.885,0,0,0,6.305,9.48A61.71,61.71,0,0,0,109.1,129.719,70.5,70.5,0,0,0,123.07,135.9c1.67.473,3.391.868,5.182,1.187,11.175,1.986,20.771-.149,30.2-6.577,9-6.131,13.6-16.643,15.973-28.505,1.366-6.841,2.685-14.29,4.334-21.7,0,0,1.857-35.406-35.406-35.406S83.678,75.014,83.678,75.014Z"/><path class="e" d="M178.909,79.474a89.614,89.614,0,0,0,2.97-16.664C183.287,49.125,179,34.9,172.822,28.084a52.429,52.429,0,0,0-9.488-11.146A60.03,60.03,0,0,0,127.809,2.619C113.972,1.6,99.671,3.939,88.664,15.78,75.97,25.347,69.958,33.167,68.591,55.238c-.459,7.412,1.309,14.693,3.656,21.511.664-1.174,2.234-3.186,6.045-3.426a7.634,7.634,0,0,1,5.386,1.691L95.4,70.14c6.355-5.456,17.438-13.555,24.965-16.42.882-.336,1.921.3,2.15,1.623a7.813,7.813,0,0,1-.053,3.114,1.731,1.731,0,0,0,2.361,1.938c5.386-2.192,15.037-6.7,21.772-8.672l14.085,3.032A27.64,27.64,0,0,1,173.065,67.7a40.343,40.343,0,0,1,3.2,10.915Z"/><path class="d" d="M129.413,90.041c.876-2.387.685-7.995-3.887-8.714-6.078-.286-6.76,6.446-4.882,9.728C122.18,93.742,127.048,95.083,129.413,90.041Z"/><path class="d" d="M165.427,93.085c.82-2.4.687-8.02-3.5-8.707-5.567-.242-6.241,6.512-4.545,9.789C158.773,96.849,163.223,98.158,165.427,93.085Z"/><path class="d" d="M141.987,99.333q.72,1.5,1.366,3.026l-.242-.573a8.913,8.913,0,0,1,.737,2.091l-.086-.638a1.8,1.8,0,0,1,0,.344l.086-.638a1.246,1.246,0,0,1-.064.234l.242-.573a.741.741,0,0,1-.079.14l.375-.486a1.8,1.8,0,0,1-.31.28l.486-.375a3.114,3.114,0,0,1-.544.317l.573-.242a2.467,2.467,0,0,1-.56.151l.638-.086c-.289.034-.578.015-.867.032a2.536,2.536,0,0,0-1.7.7,2.4,2.4,0,0,0,1.7,4.1,14.2,14.2,0,0,0,1.5-.117,4.1,4.1,0,0,0,1.678-.71,3.884,3.884,0,0,0,1.214-1.21,3.36,3.36,0,0,0,.435-1.6,4.679,4.679,0,0,0-.349-1.775c-.619-1.635-1.332-3.24-2.09-4.814a2.42,2.42,0,0,0-1.435-1.1,2.452,2.452,0,0,0-1.849.242,2.421,2.421,0,0,0-1.1,1.434,2.684,2.684,0,0,0,.242,1.849Z"/><path class="d" d="M85.375,73.317A10.666,10.666,0,0,0,73.1,72.461c-3.033,1.979-4.179,5.336-4.551,8.8-.824,7.669,2.655,16.362,9.048,20.839,3.3,2.312,8.394,3.427,12.235,2.046a2.462,2.462,0,0,0,1.676-2.952,2.422,2.422,0,0,0-2.952-1.677c-2.5.9-5.42.2-7.688-1.036A14.419,14.419,0,0,1,75.352,92.1a19.319,19.319,0,0,1-2.077-7.477,16.294,16.294,0,0,1,.278-4.485,9.581,9.581,0,0,1,.483-1.62,5.686,5.686,0,0,1,.361-.687c.055-.093.367-.556.23-.372-.1.133.345-.377.471-.5a1.545,1.545,0,0,1,.426-.349,5.331,5.331,0,0,1,1.8-.74,5.594,5.594,0,0,1,4.657.847,2.474,2.474,0,0,0,3.394,0,2.418,2.418,0,0,0,0-3.4Z"/><path class="d" d="M128.009,118.243a16.391,16.391,0,0,0,7.4,2.426,18.347,18.347,0,0,0,7.623-.981,2.4,2.4,0,0,0-1.276-4.629c-.584.18-1.17.356-1.761.512-.3.08-.606.158-.911.227a1.876,1.876,0,0,1-.666.13c.2.066.426-.047.024-.008-.12.011-.241.021-.361.029-.248.016-.495.025-.743.027a15.219,15.219,0,0,1-1.734-.085c-.057-.006-.487-.058-.169-.016s-.113-.02-.17-.029c-.292-.048-.584-.1-.873-.165-.539-.117-1.072-.258-1.6-.428-.239-.078-.476-.161-.711-.251-.264-.1-.3-.134-.02,0-.108-.05-.217-.1-.325-.149a9.6,9.6,0,0,1-1.308-.753,2.416,2.416,0,0,0-3.284.861,2.46,2.46,0,0,0,.861,3.284Z"/><path class="d" d="M110.312,127.646a57.256,57.256,0,0,1-12.645-10.818,50.2,50.2,0,0,1-8.376-13.882,2.47,2.47,0,0,0-2.952-1.676,2.418,2.418,0,0,0-1.677,2.952c4.463,11.542,12.878,20.959,23.227,27.569,2.611,1.668,5.022-2.485,2.423-4.145Z"/><path class="d" d="M176.449,79.659c-1.711,7.728-2.97,15.548-4.664,23.278a52.022,52.022,0,0,1-6.769,17.4c-7.044,10.825-20.576,16.112-33.165,14.853-7.692-.77-14.875-3.74-21.539-7.54-2.688-1.532-5.109,2.613-2.423,4.145a61.515,61.515,0,0,0,20.582,7.752,41.559,41.559,0,0,0,21.27-1.789c6.486-2.435,12.694-6.29,17.052-11.748a49.543,49.543,0,0,0,8.726-18.13c1.12-4.132,1.842-8.366,2.648-12.568.922-4.8,1.854-9.6,2.911-14.373.666-3.01-3.96-4.3-4.629-1.276Z"/><path class="d" d="M92.465,15.36A40.586,40.586,0,0,1,116.993,5.012a65.05,65.05,0,0,1,27.168,3.433,53.739,53.739,0,0,1,21.647,14.33,45.331,45.331,0,0,1,4.391,5.642c1.047,1.615,2.342,3.024,3.35,4.676a41.555,41.555,0,0,1,4.738,12c2.674,11.149,1.282,22.8-1.692,33.745-.811,2.985,3.818,4.259,4.628,1.277,2.871-10.569,4.292-21.758,2.444-32.626A51.392,51.392,0,0,0,179.2,33.411a31.98,31.98,0,0,0-3.329-5.387c-1.461-1.9-2.767-3.9-4.257-5.79C159.292,6.625,139.213-.686,119.693.051,108.324.48,97.5,4.159,89.071,11.966c-2.271,2.1,1.129,5.491,3.394,3.394Z"/><path class="d" d="M73.407,72.542A53.05,53.05,0,0,1,70.924,58.3a68.59,68.59,0,0,1,1.14-12.8c1.083-6.209,2.969-11.96,6.679-17.062a45.031,45.031,0,0,1,6.563-6.9c2.333-2.034-1.074-5.417-3.394-3.394A41.322,41.322,0,0,0,70.82,32.644c-3.215,7.408-4.436,15.744-4.683,23.772a55.331,55.331,0,0,0,2.641,17.4c.88,2.954,5.514,1.7,4.629-1.276Z"/><path class="d" d="M159.469,56.827a26.15,26.15,0,0,1,9.632,8.735,35.58,35.58,0,0,1,4.846,13.691,2.419,2.419,0,0,0,2.952,1.676,2.456,2.456,0,0,0,1.676-2.952,39.046,39.046,0,0,0-5.51-15.118,31.133,31.133,0,0,0-11.173-10.177c-2.7-1.508-5.123,2.637-2.423,4.145Z"/><path class="d" d="M97.1,71.837a108.113,108.113,0,0,1,20.712-14.344c.779-.4,1.566-.784,2.37-1.128.021-.009.823-.311.824-.331a3.324,3.324,0,0,1-.64-.124c-.539-.178-.105-.567-.163.071-.042.469.064.959.019,1.437-.042.455-.191.91-.195,1.371a4.134,4.134,0,0,0,1.819,3.412c2.085,1.385,4.081.327,6.1-.53,1.86-.788,3.712-1.595,5.569-2.391a126.2,126.2,0,0,1,13.719-5.243c2.955-.876,1.7-5.51-1.276-4.628a121.626,121.626,0,0,0-12.7,4.8c-2.076.878-4.143,1.776-6.214,2.664-.691.3-1.381.593-2.074.881-.113.046-.776.258-.788.369.029-.259.743.5.6.5.137,0-.016.26.115-.213.642-2.33-.072-5.6-2.341-6.76-2.009-1.03-4.14.232-5.964,1.1a81.451,81.451,0,0,0-11.171,6.689,143.586,143.586,0,0,0-11.716,9,2.42,2.42,0,0,0,0,3.394,2.449,2.449,0,0,0,3.394,0Z"/><path class="d" d="M191.158,229c6.146,2.772,9.379,9.564,9.192,16.093a19.743,19.743,0,0,1-2.455,9.114,7.745,7.745,0,0,1-2.187,2.542,13.065,13.065,0,0,1-3.5,1.7,16.424,16.424,0,0,1-10.19.1,2.423,2.423,0,0,0-2.953,1.676,2.45,2.45,0,0,0,1.677,2.952,20.766,20.766,0,0,0,11.468.269,15.7,15.7,0,0,0,9.1-5.709A22.521,22.521,0,0,0,205,247.175a23.508,23.508,0,0,0-2.351-13.255,19.565,19.565,0,0,0-9.07-9.064,2.473,2.473,0,0,0-3.284.861,2.42,2.42,0,0,0,.861,3.284Z"/><path class="f" d="M187.166,232.705a9.766,9.766,0,0,0,4.8-4.47,4.479,4.479,0,0,0,.438-1.958c-.052-1.5-1.111-2.764-2.168-3.835A44.649,44.649,0,0,0,174.383,212.1a8.258,8.258,0,0,0-2.6-.317,8.577,8.577,0,0,0-5.457,1.559c-1.755,1.326-2.741,2.348-3.112,4.516a7.96,7.96,0,0,0,.619,4.963,2.805,2.805,0,0,0,1.64,1.153,14.025,14.025,0,0,1,5.471,3.506,62.45,62.45,0,0,1,6,6.813,1.413,1.413,0,0,0,1.2.541A24.651,24.651,0,0,0,187.166,232.705Z"/><path class="d" d="M176.133,252.946q-.357.317-.746.623l2.729.98c.462.252,1.017-.081,1.42-.418a17.312,17.312,0,0,0,5.886-9.475c.923-4.305,1.467-6.941,1.1-11.65a25.518,25.518,0,0,1-8.377,1.826,1.433,1.433,0,0,1-.341-.022,16,16,0,0,1,2.539,10.734A12.133,12.133,0,0,1,176.133,252.946Z"/><path class="a" d="M151.969,271.784c.913-2.415,3.581-7.477,5.842-9.149,4.359-3.224,5.553-3.565,10.8-5.536,7.74-2.578,11.168-7.331,11.729-11.555a16.111,16.111,0,0,0-3.423-11.963,33.982,33.982,0,0,0-3.329-3.46c-2.971-2.81-6.468-5.818-10.544-5.5l-8.4.079a51.29,51.29,0,0,1-19.36,4.549c-5.388.345-8.7.726-14.077,1.262-3.043.3-7.09,2.392-7.983,5.012-2.47,7.243-3.992,13.9-4.161,20.473-.052,2.016.594,5.841,3.557,6.815,2.177.715,4.331.518,8.575-.808a4.947,4.947,0,0,0,4.439,4.432,6.487,6.487,0,0,0,4.684-.9l1.744-1.232c-.139,3.134.839,5.709,3.9,6.673,3.559,1.122,5.263-1.354,7.114-2.779.22,2.529,1.383,4.611,3.206,5.367a4.262,4.262,0,0,0,5.684-1.781"/><path class="d" d="M154.012,222.388a54.555,54.555,0,0,1-15.247,4.182c-6.053.619-12.153.807-18.189,1.624a14.177,14.177,0,0,0-7.425,3.387c-2.265,2.015-2.895,5.158-3.708,7.953a71.687,71.687,0,0,0-2.138,9.57,33.5,33.5,0,0,0-.57,8.284c.289,2.676,1.271,5.419,3.614,6.967,2.67,1.763,6.153,1.355,9.084.651,3-.721,1.731-5.351-1.276-4.629-1.591.382-4.081.9-5.347-.15-1.053-.872-1.316-2.577-1.342-3.8-.114-5.405,1.216-10.928,2.738-16.073.667-2.254.953-4.489,2.963-5.844a13.04,13.04,0,0,1,6.359-1.828c5.336-.541,10.709-.788,16.034-1.4a58.314,58.314,0,0,0,15.726-4.267,2.477,2.477,0,0,0,1.677-2.952,2.417,2.417,0,0,0-2.953-1.677Z"/><path class="d" d="M123.2,242.6c-1.691,5.164-3.748,10.464-4.428,15.887-.358,2.848-.043,5.915,2.028,8.083,2.665,2.789,7.564,3.1,10.734,1.037,2.579-1.68.176-5.838-2.422-4.145-1.818,1.184-4.662.811-5.448-1.132.137.337-.069-.347-.07-.348a7.049,7.049,0,0,1-.14-.706c.058.418-.013-.383-.013-.381-.013-.278-.013-.558,0-.837a19.014,19.014,0,0,1,.671-4.023c1.029-4.116,2.4-8.131,3.722-12.159.963-2.943-3.67-4.2-4.629-1.276Z"/><path class="d" d="M134.942,246.069c-1.242,3.245-2.443,6.5-3.452,9.827-.951,3.133-2.04,6.449-1.805,9.769.214,3.024,1.594,5.855,4.462,7.16a7.949,7.949,0,0,0,5.4.582,10.885,10.885,0,0,0,4.177-2.618c2.319-2.051-1.086-5.435-3.394-3.395a4.935,4.935,0,0,1-2.377,1.461,3.586,3.586,0,0,1-2.378-.729c-1.225-1.03-1.265-3.094-1.017-4.908a46.831,46.831,0,0,1,2.117-7.826c.874-2.715,1.877-5.384,2.9-8.047a2.42,2.42,0,0,0-1.677-2.952,2.454,2.454,0,0,0-2.952,1.676Z"/><path class="d" d="M145.824,250.513a78.188,78.188,0,0,0-3.576,9.11c-.84,2.714-1.815,5.657-1.575,8.527.249,2.975,1.525,6.162,4.4,7.487A6.878,6.878,0,0,0,154.041,273a2.4,2.4,0,1,0-4.144-2.423,2.037,2.037,0,0,1-3.369.282c-1.043-1.09-1.3-3.395-.949-5.141a60.35,60.35,0,0,1,4.39-12.777,2.474,2.474,0,0,0-.861-3.284,2.42,2.42,0,0,0-3.284.861Z"/><path class="a" d="M98.847,140.043h0C98.8,140.016,98.79,140.012,98.847,140.043Z"/><path class="d" d="M6.108,272.385a51.984,51.984,0,0,1-1.147-8.676,50.773,50.773,0,0,1-.171-6.81,156.325,156.325,0,0,1,2.219-16.87c1.514-8.734,3.307-17.417,5.457-26.017,1.515-6.058,3.16-12.084,4.844-18.1,2.188-7.815,4.345-15.638,7.529-23.122,2.492-5.858,5.427-12.052,9.761-16.8,4.612-5.053,10.528-8.591,16.793-11.219,5.4-2.263,10.992-4.092,16.492-6.084,5.594-2.027,11.189-4.054,16.747-6.18q1.494-.571,2.981-1.161a2.474,2.474,0,0,0,1.676-2.952,2.417,2.417,0,0,0-2.952-1.677c-10.571,4.21-21.365,7.832-32.031,11.786-6.857,2.542-13.469,5.615-19.127,10.322-5.2,4.323-8.86,9.9-11.871,15.893a133.068,133.068,0,0,0-8.771,23.352C12.593,194.9,10.68,201.726,8.9,208.591c-2.334,8.978-4.29,18.019-5.967,27.141C1.861,241.541.938,247.384.311,253.258a66.773,66.773,0,0,0,.378,15.823,41.272,41.272,0,0,0,.79,4.58c.737,3,5.368,1.728,4.629-1.276Z"/><path class="d" d="M150.905,139.584q8.934,2.949,17.641,6.551a89.872,89.872,0,0,1,15.987,8.15c5.381,3.637,8.553,9.411,11.334,15.091,3.268,6.673,6.2,13.51,9.033,20.376,2.819,6.824,5.57,13.677,8.333,20.524a138.264,138.264,0,0,1,6.719,20.518,61.3,61.3,0,0,1,1.951,16.06,30.706,30.706,0,0,1-6.975,16.556c-3.612,3.82-8.768,5.826-13.884,6.732a31.968,31.968,0,0,1-15.851-1.12,19.565,19.565,0,0,1-3.171-1.414c-2.712-1.483-5.137,2.66-2.423,4.145a33.042,33.042,0,0,0,17.015,3.642,34.616,34.616,0,0,0,17.272-4.98c5.629-3.6,9.045-9.362,11.188-15.576a27.239,27.239,0,0,0,1.613-9.83,79.963,79.963,0,0,0-.8-8.573c-2.093-14.493-8.237-27.982-13.694-41.442-3.048-7.516-6.139-15.022-9.515-22.4-2.9-6.326-5.762-12.691-10.51-17.866-4.507-4.913-10.483-7.962-16.485-10.689-6.339-2.88-12.85-5.4-19.421-7.7q-2.036-.713-4.081-1.388c-2.94-.97-4.2,3.664-1.276,4.629Z"/><path class="d" d="M112.249,155.554c.71,2.5,1.353,5.012,1.972,7.533q.454,1.844.895,3.691c.055.232.229,1.6.4,1.674a2.686,2.686,0,0,1,.058-.546c-.435,1.93-.712,3.911-1.1,5.853-1.18,5.946-2.384,11.9-3.783,17.794-.489,2.06-1.058,4.1-1.6,6.146-.792,2.989,3.837,4.265,4.629,1.277,1.216-4.594,2.317-9.195,3.306-13.844,1.117-5.252,2.33-10.523,3.157-15.831.322-2.068-.528-4.171-1.015-6.174-.719-2.961-1.46-5.917-2.293-8.849-.843-2.966-5.476-1.7-4.629,1.276Z"/><path class="d" d="M177.478,256.864c2.61.777,4.855-1.833,6.324-3.661a20.276,20.276,0,0,0,3.442-6.146,36.478,36.478,0,0,0,1.4-6.489,33.969,33.969,0,0,0,.308-7.139,2.454,2.454,0,0,0-2.4-2.4,2.421,2.421,0,0,0-2.4,2.4,36.669,36.669,0,0,1-1.083,10.751,14.717,14.717,0,0,1-3.424,6.52q-.45.5-.936.956a3.172,3.172,0,0,0-.493.451c-.237.375-.474-.173.536.128-2.967-.884-4.234,3.747-1.276,4.629Z"/><path class="d" d="M188.378,234.778c2.725-1.392,5.342-3.6,6.185-6.666.983-3.574-1.421-6.28-3.84-8.551a47.744,47.744,0,0,0-7.9-6,44.611,44.611,0,0,0-4.106-2.2,18.346,18.346,0,0,0-4.775-1.809c-6.192-.958-12.734,2.508-13.236,9.186a9.985,9.985,0,0,0,.882,4.89c.737,1.607,2.068,2.186,3.624,2.8,2.823,1.109,4.953,3.547,6.916,5.763.955,1.079,1.861,2.2,2.751,3.33a4.178,4.178,0,0,0,3.9,1.68,26.76,26.76,0,0,0,9.6-2.413,2.423,2.423,0,0,0,.861-3.284,2.452,2.452,0,0,0-3.284-.861,19.676,19.676,0,0,1-6.247,1.671c-.376.042-.789.03-1.159.1-.045.009-.4.022-.4.025l.5.162-.114-.144c-.031-.227-.52-.664-.652-.831q-.486-.613-.983-1.218a42.08,42.08,0,0,0-5.459-5.705,14.714,14.714,0,0,0-4.59-2.767c-.243-.1-.487-.187-.734-.271s-.423-.4-.205-.05a4.964,4.964,0,0,1,.54-5.217,6.678,6.678,0,0,1,5.115-2.207c2.339-.039,4.4,1.1,6.436,2.164a42.855,42.855,0,0,1,6.438,4.118,41.652,41.652,0,0,1,3.2,2.781,8.639,8.639,0,0,1,2.245,2.585c.843,2.123-2.454,4.049-3.926,4.8C183.2,232.038,185.629,236.181,188.378,234.778Z"/><path class="d" d="M154.283,272.422a32.118,32.118,0,0,1,2.927-5.474,14.1,14.1,0,0,1,4.4-4.06c3.937-2.556,8.563-3.32,12.679-5.686,3.7-2.126,6.912-5.432,8.078-9.623,1.46-5.244-.215-11.165-3.5-15.369a39.179,39.179,0,0,0-7.109-6.824,13.36,13.36,0,0,0-8.714-3.162c-3.073.163-3.092,4.964,0,4.8a9.181,9.181,0,0,1,6.125,2.383,37.15,37.15,0,0,1,5.775,5.533c2.643,3.236,4,8.037,2.57,12.07a10.925,10.925,0,0,1-2.582,3.782,17.076,17.076,0,0,1-5.338,3.4c-3.982,1.661-7.961,2.816-11.535,5.318a18.418,18.418,0,0,0-5.189,5.312,34.8,34.8,0,0,0-3.218,6.327,2.417,2.417,0,0,0,1.676,2.952,2.455,2.455,0,0,0,2.952-1.676Z"/></svg>